# 3ds Max Wavefront OBJ Exporter v0.97b - (c)2007 guruware
# File Created: 09.05.2018 10:15:39

mtllib 700480.mtl

#
# object 700480
#

v  -19.8840 0.0000 0.5109
v  -19.8840 0.0000 5.0745
v  -22.0000 0.0000 5.0745
v  -22.0000 0.0000 0.5109
v  22.0000 0.0000 0.5109
v  22.0000 0.0000 5.0745
v  19.8840 0.0000 5.0745
v  19.8840 0.0000 0.5109
v  -19.8840 11.2430 0.5109
v  -22.0000 11.2430 0.5109
v  -22.0000 11.2430 6.8946
v  -19.8840 11.2430 6.8946
v  -4.9503 11.2430 6.8946
v  -4.9503 11.2430 0.5109
v  22.0000 11.2430 0.5109
v  19.8840 11.2430 0.5109
v  19.8840 11.2430 6.8946
v  22.0000 11.2430 6.8946
v  -19.8840 2.4287 7.0608
v  -22.0000 2.4287 7.0608
v  -22.0000 0.4451 5.8023
v  -19.8840 0.4451 5.8023
v  22.0000 2.4287 7.0608
v  19.8840 2.4287 7.0608
v  19.8840 0.4451 5.8023
v  22.0000 0.4451 5.8023
v  -19.8840 4.2409 7.3946
v  -22.0000 4.2409 7.3946
v  -22.0000 2.5232 7.0836
v  -19.8840 2.5232 7.0836
v  -4.9503 2.5232 7.0836
v  -4.9503 4.2409 7.3946
v  22.0000 4.2409 7.3946
v  19.8840 4.2409 7.3946
v  19.8840 2.5232 7.0836
v  22.0000 2.5232 7.0836
v  -19.8840 10.7430 7.3946
v  -22.0000 10.7430 7.3946
v  -4.9503 6.9426 7.3946
v  -4.9503 10.7430 7.3946
v  22.0000 10.7430 7.3946
v  19.8840 10.7430 7.3946
v  22.5000 2.4232 0.5109
v  22.5000 2.4292 6.5597
v  22.5000 0.5000 5.2687
v  22.5000 0.5000 0.5109
v  22.5000 4.2409 0.5109
v  22.5000 4.2409 6.8946
v  22.5000 2.5232 6.5836
v  22.5000 2.5232 0.5109
v  22.5000 10.7430 0.5109
v  22.5000 10.7430 6.8946
v  19.8840 2.4232 0.0109
v  22.0000 2.4232 0.0109
v  22.0000 0.5000 0.0109
v  19.8840 0.5000 0.0109
v  -22.0000 2.4232 0.0109
v  -19.8840 2.4232 0.0109
v  -19.8840 0.5000 0.0109
v  -22.0000 0.5000 0.0109
v  19.8840 4.2409 0.0109
v  22.0000 4.2409 0.0109
v  22.0000 2.5232 0.0109
v  19.8840 2.5232 0.0109
v  4.9503 2.5232 0.0109
v  4.9503 4.2409 0.0109
v  -22.0000 4.2409 0.0109
v  -19.8840 4.2409 0.0109
v  -19.8840 2.5232 0.0109
v  -22.0000 2.5232 0.0109
v  19.8840 10.7430 0.0109
v  22.0000 10.7430 0.0109
v  4.9503 10.7430 0.0109
v  -22.0000 10.7430 0.0109
v  -19.8840 10.7430 0.0109
v  -22.5000 2.4292 6.5597
v  -22.5000 2.4232 0.5109
v  -22.5000 0.5000 0.5109
v  -22.5000 0.5000 5.2687
v  -22.5000 4.2409 6.8946
v  -22.5000 4.2409 0.5109
v  -22.5000 2.5232 0.5109
v  -22.5000 2.5232 6.5836
v  -22.5000 10.7430 6.8946
v  -22.5000 10.7430 0.5109
v  -22.2816 0.2050 5.5506
v  -22.0000 0.1113 5.5065
v  22.2815 0.1147 5.4012
v  22.0000 0.1113 5.5065
v  -22.3750 0.2187 0.2297
v  -22.3750 0.1250 0.5109
v  22.2813 0.1250 0.2297
v  22.3750 0.1250 0.5109
v  -22.2813 11.1180 7.1759
v  -22.0000 11.1180 7.2696
v  22.2813 11.0242 7.2696
v  22.0000 11.1180 7.2696
v  -22.2813 11.1180 0.2297
v  -22.3750 11.1180 0.5109
v  22.3750 11.0242 0.2297
v  22.3750 11.1180 0.5109
v  -22.3754 0.1250 5.1231
v  -19.8840 0.1250 0.1359
v  -22.0000 0.1250 0.1359
v  -19.8840 0.1113 5.5065
v  22.0000 0.1250 0.1359
v  19.8840 0.1250 0.1359
v  22.3750 0.1250 5.0844
v  19.8840 0.1113 5.5065
v  -19.8840 11.1180 7.2696
v  -22.0000 11.1180 0.1359
v  -19.8840 11.1180 0.1359
v  -22.3750 11.1180 6.8946
v  -4.9503 11.1180 7.2696
v  19.8840 11.1180 0.1359
v  4.9503 11.1180 0.1359
v  4.9503 11.2430 0.5109
v  19.8840 11.1180 7.2696
v  22.3750 11.1180 6.8946
v  22.0000 11.1180 0.1359
v  -22.3750 0.4863 5.6829
v  -22.3750 2.4288 6.9356
v  22.3750 2.4288 6.9356
v  22.3753 0.4588 5.6689
v  -22.3750 2.5232 6.9586
v  -22.3750 4.2409 7.2696
v  22.3750 4.2409 7.2696
v  22.3750 2.5232 6.9586
v  -22.3750 10.7430 7.2696
v  22.3750 10.7430 7.2696
v  22.3750 2.4232 0.1359
v  22.3750 0.5000 0.1359
v  22.3750 4.2409 0.1359
v  22.3750 2.5232 0.1359
v  22.3750 10.7430 0.1359
v  -22.3750 2.4232 0.1359
v  -22.3750 0.5000 0.1359
v  -22.3750 4.2409 0.1359
v  -22.3750 2.5232 0.1359
v  -22.3750 10.7430 0.1359
v  -19.6586 0.1412 0.8106
v  -19.6586 0.1412 4.8171
v  19.6586 0.1412 4.8171
v  19.6586 0.1412 0.8106
v  -19.6586 0.5054 5.4656
v  -19.6586 2.1644 6.6340
v  19.6586 2.1644 6.6340
v  19.6586 0.5054 5.4656
v  4.9503 2.4287 7.0608
v  4.9503 2.1644 6.6340
v  19.6586 0.5503 0.3650
v  19.6586 2.1644 0.3650
v  -19.6586 2.1644 0.3650
v  -19.6586 0.5503 0.3650
v  -4.9503 2.4232 0.0109
v  -4.9503 2.1644 0.3650
v  -19.6586 0.2323 5.2020
v  19.6586 0.2323 5.2020
v  -19.6586 0.2435 0.4764
v  19.6586 0.2435 0.4764
v  -4.9503 2.4287 7.0608
v  4.9503 2.4232 0.0109
v  4.9503 11.2430 6.8946
v  4.9503 4.2409 7.3946
v  4.9503 2.5232 7.0836
v  4.9503 10.7430 7.3946
v  4.9503 6.9426 7.3946
v  -4.9503 4.2409 0.0109
v  -4.9503 2.5232 0.0109
v  -4.9503 10.7430 0.0109
v  4.9503 11.1180 7.2696
v  -4.9503 11.1180 0.1359
v  -4.9503 2.1644 6.6340
v  4.9503 2.1644 0.3650
v  19.7550 0.0000 0.5109
v  19.7550 0.0000 5.0745
v  -19.6919 0.0000 5.0745
v  -19.6919 0.0000 0.5109
v  19.7550 2.2531 6.9738
v  -19.6919 2.2531 6.9738
v  -19.6919 0.4451 5.8023
v  19.7550 0.4451 5.8023
v  -19.6919 2.2555 0.0109
v  19.7550 2.2555 0.0109
v  19.7550 0.5000 0.0109
v  -19.6919 0.5000 0.0109
v  19.7550 0.1250 0.1359
v  -19.6919 0.1250 0.1359
v  -19.6919 0.1113 5.5065
v  19.7550 0.1113 5.5065
v  -19.9030 0.2365 4.8829
v  -19.9030 0.2365 0.7339
v  19.9660 0.2365 0.7339
v  19.9660 0.2365 4.8829
v  -19.9030 2.4920 6.7490
v  -19.9030 0.6816 5.5517
v  19.9660 0.6816 5.5517
v  19.9660 2.4920 6.7490
v  19.9660 2.4920 0.2744
v  19.9660 0.7365 0.2744
v  -19.9030 0.7365 0.2744
v  -19.9030 2.4920 0.2744
v  -19.9030 0.3477 5.2799
v  19.9660 0.3477 5.2799
v  -19.9030 0.3615 0.3893
v  19.9660 0.3615 0.3893
# 206 vertices

vn 0.0000 -0.9871 -0.1602
vn -0.0000 -0.9921 0.1257
vn -0.1503 -0.9816 0.1179
vn -0.1559 -0.9754 -0.1559
vn 0.1334 -0.9820 -0.1334
vn 0.1354 -0.9857 0.1001
vn 0.0000 -0.9921 0.1257
vn -0.0000 -0.9871 -0.1602
vn 0.0000 0.9871 -0.1602
vn -0.1334 0.9820 -0.1334
vn -0.1334 0.9820 0.1334
vn 0.0000 0.9871 0.1602
vn 0.1559 0.9754 -0.1559
vn 0.1559 0.9754 0.1559
vn -0.0000 -0.4560 0.8900
vn -0.1479 -0.3820 0.9123
vn -0.1342 -0.5765 0.8060
vn 0.0000 -0.6014 0.7990
vn 0.1472 -0.3806 0.9129
vn 0.0000 -0.4560 0.8900
vn -0.0000 -0.6014 0.7990
vn 0.1463 -0.5926 0.7921
vn 0.0000 -0.0894 0.9960
vn -0.1582 -0.0876 0.9835
vn -0.1606 -0.1758 0.9712
vn 0.0000 -0.1782 0.9840
vn 0.1582 -0.0876 0.9835
vn 0.1606 -0.1758 0.9712
vn 0.0000 0.1602 0.9871
vn -0.1559 0.1559 0.9754
vn 0.0000 0.0000 1.0000
vn 0.1334 0.1334 0.9820
vn 0.9871 0.0000 -0.1602
vn 0.9810 -0.0854 0.1740
vn 0.9694 -0.2146 0.1197
vn 0.9754 -0.1559 -0.1559
vn 0.9855 -0.0161 0.1690
vn 0.9895 -0.0258 0.1422
vn 0.9820 0.1334 -0.1334
vn 0.9754 0.1559 0.1559
vn 0.0000 0.0000 -1.0000
vn 0.1602 0.0000 -0.9871
vn 0.1559 -0.1559 -0.9754
vn -0.0000 -0.1602 -0.9871
vn -0.1602 0.0000 -0.9871
vn 0.0000 -0.1602 -0.9871
vn -0.1559 -0.1559 -0.9754
vn 0.0000 0.1602 -0.9871
vn 0.1559 0.1559 -0.9754
vn -0.1559 0.1559 -0.9754
vn -0.9806 -0.0886 0.1748
vn -0.9871 0.0000 -0.1602
vn -0.9820 -0.1334 -0.1334
vn -0.9698 -0.2106 0.1234
vn -0.9855 -0.0161 0.1690
vn -0.9895 -0.0258 0.1422
vn -0.9754 0.1559 0.1559
vn -0.9754 0.1559 -0.1559
vn -0.5114 -0.6914 0.5104
vn -0.1051 -0.8611 0.4975
vn 0.5139 -0.7688 0.3807
vn 0.1068 -0.8348 0.5402
vn -0.6604 -0.5310 -0.5310
vn -0.6823 -0.7215 -0.1179
vn 0.5310 -0.6604 -0.5310
vn 0.7215 -0.6823 -0.1179
vn -0.5310 0.6604 0.5310
vn -0.1179 0.6823 0.7215
vn 0.5310 0.5310 0.6604
vn 0.1179 0.7215 0.6823
vn -0.5310 0.6604 -0.5310
vn -0.7215 0.6823 -0.1179
vn 0.6604 0.5310 -0.5310
vn 0.6823 0.7215 -0.1179
vn -0.6862 -0.7171 0.1216
vn 0.0000 -0.7071 -0.7071
vn -0.1616 -0.6978 -0.6978
vn -0.0000 -0.8531 0.5218
vn 0.1179 -0.6823 -0.7215
vn -0.0000 -0.7071 -0.7071
vn 0.7093 -0.7015 0.0694
vn 0.0000 0.7071 0.7071
vn -0.1179 0.6823 -0.7215
vn 0.0000 0.7071 -0.7071
vn -0.7215 0.6823 0.1179
vn 0.6978 0.6978 0.1616
vn 0.1616 0.6978 -0.6978
vn -0.7095 -0.4118 0.5719
vn -0.6679 -0.2965 0.6827
vn 0.6685 -0.2931 0.6835
vn 0.6840 -0.4661 0.5611
vn -0.7279 -0.1222 0.6747
vn -0.6938 -0.0646 0.7173
vn 0.6938 -0.0646 0.7173
vn 0.7279 -0.1222 0.6747
vn -0.6978 0.1616 0.6978
vn 0.7215 0.1179 0.6823
vn 0.7071 0.0000 -0.7071
vn 0.6978 -0.1616 -0.6978
vn 0.6823 0.1179 -0.7215
vn -0.7071 0.0000 -0.7071
vn -0.6823 -0.1179 -0.7215
vn -0.6978 0.1616 -0.6978
vn 0.6337 -0.7613 0.1372
vn 0.6651 -0.7280 -0.1660
vn 0.5840 -0.8097 -0.0576
vn 0.5700 -0.8200 0.0526
vn -0.6748 -0.7184 -0.1689
vn -0.6250 -0.7692 0.1332
vn -0.5707 -0.8196 0.0500
vn -0.5833 -0.8100 -0.0602
vn 0.7014 -0.4045 0.5868
vn 0.8090 -0.3483 0.4736
vn 0.7914 -0.3923 0.4689
vn 0.6578 -0.4337 0.6158
vn -0.7974 -0.3664 0.4796
vn -0.6966 -0.3844 0.6058
vn -0.7062 -0.3812 0.5967
vn -0.8019 -0.3836 0.4581
vn 0.0000 -0.5863 0.8101
vn 0.0000 -0.8503 0.5263
vn -0.8436 0.0000 -0.5370
vn -0.8476 -0.0867 -0.5235
vn -0.8458 -0.0943 -0.5250
vn 0.8460 -0.0846 -0.5265
vn 0.8436 0.0000 -0.5370
vn 0.8478 -0.0898 -0.5227
vn 0.0000 -0.8074 -0.5900
vn 0.7767 -0.5105 0.3690
vn 0.7124 -0.6445 0.2776
vn -0.7673 -0.5224 0.3720
vn -0.7214 -0.6356 0.2750
vn 0.8276 -0.3655 -0.4260
vn 0.7940 -0.5009 -0.3444
vn -0.8319 -0.3611 -0.4214
vn -0.7867 -0.5107 -0.3467
vn 0.0000 -0.2343 0.9722
vn -0.1523 -0.2315 0.9608
vn 0.1525 -0.2317 0.9607
vn 0.9817 -0.0468 0.1845
vn -0.9818 -0.0465 0.1841
vn -0.6643 -0.1771 0.7262
vn 0.6642 -0.1775 0.7261
vn 0.0000 -0.5438 0.8392
vn 0.0000 -0.6052 0.7961
vn 0.0000 -0.9487 -0.3162
vn 0.0000 -0.8531 0.5218
vn 0.0000 -0.3162 -0.9487
vn -0.7954 -0.5933 -0.1238
vn -0.7849 -0.6112 0.1020
vn -0.7685 -0.6370 0.0604
vn -0.7776 -0.6251 -0.0683
vn 0.7809 -0.6168 0.0989
vn 0.8000 -0.5865 -0.1266
vn 0.7767 -0.6258 -0.0715
vn 0.7694 -0.6362 0.0575
vn -0.8507 -0.3213 0.4159
vn -0.8336 -0.3004 0.4636
vn -0.8357 -0.2992 0.4606
vn -0.8483 -0.3168 0.4243
vn 0.8358 -0.3024 0.4583
vn 0.8480 -0.3178 0.4241
vn 0.8499 -0.3087 0.4271
vn 0.8342 -0.3042 0.4600
vn 0.0000 0.6852 0.7283
vn 0.8232 -0.1155 -0.5558
vn 0.7805 0.0000 -0.6252
vn 0.8030 -0.0600 -0.5930
vn -0.7805 0.0000 -0.6252
vn -0.8194 -0.1129 -0.5620
vn -0.8037 -0.0574 -0.5923
vn 0.0000 0.7442 -0.6679
vn -0.8403 -0.4518 0.2997
vn -0.8318 -0.4782 0.2819
vn 0.8348 -0.4604 0.3019
vn 0.8366 -0.4730 0.2763
vn -0.8521 -0.3661 -0.3740
vn -0.8558 -0.3612 -0.3702
vn 0.8559 -0.3619 -0.3696
vn 0.8520 -0.3660 -0.3743
# 180 vertex normals

vt 0.6667 0.9183 0.0000
vt 0.6667 0.0817 0.0000
vt 0.9363 0.0817 0.0000
vt 0.9363 0.9183 0.0000
vt 0.0637 0.9183 0.0000
vt 0.0637 0.0817 0.0000
vt 0.3333 0.0817 0.0000
vt 0.3333 0.9183 0.0000
vt 0.3333 0.9323 0.0000
vt 0.0637 0.9323 0.0000
vt 0.0637 0.0677 0.0000
vt 0.3333 0.0677 0.0000
vt 0.4585 0.0677 0.0000
vt 0.4585 0.9323 0.0000
vt 0.9363 0.9323 0.0000
vt 0.6667 0.9323 0.0000
vt 0.6667 0.0677 0.0000
vt 0.9363 0.0677 0.0000
vt 0.3333 0.3273 0.0000
vt 0.0637 0.3273 0.0000
vt 0.0637 0.0600 0.0000
vt 0.3333 0.0600 0.0000
vt 0.9363 0.3273 0.0000
vt 0.6667 0.3333 0.0000
vt 0.6667 0.0600 0.0000
vt 0.9363 0.0600 0.0000
vt 0.3333 0.6667 0.0000
vt 0.0637 0.6667 0.0000
vt 0.0637 0.3448 0.0000
vt 0.3333 0.3448 0.0000
vt 0.4585 0.3448 0.0000
vt 0.4585 0.6667 0.0000
vt 0.9363 0.6667 0.0000
vt 0.6667 0.6667 0.0000
vt 0.6667 0.3448 0.0000
vt 0.9363 0.3448 0.0000
vt 0.3333 0.9772 0.0000
vt 0.0637 0.9772 0.0000
vt 0.4585 0.7898 0.0000
vt 0.4585 0.9772 0.0000
vt 0.9363 0.9772 0.0000
vt 0.6667 0.9772 0.0000
vt 0.9319 0.3266 0.0000
vt 0.0679 0.3274 0.0000
vt 0.0761 0.0674 0.0000
vt 0.9183 0.0674 0.0000
vt 0.9323 0.6667 0.0000
vt 0.0677 0.6667 0.0000
vt 0.0677 0.3448 0.0000
vt 0.9323 0.3448 0.0000
vt 0.9323 0.9772 0.0000
vt 0.0677 0.9772 0.0000
vt 0.3333 0.3266 0.0000
vt 0.0637 0.3266 0.0000
vt 0.0637 0.0674 0.0000
vt 0.3333 0.0674 0.0000
vt 0.9363 0.3266 0.0000
vt 0.6667 0.0674 0.0000
vt 0.9363 0.0674 0.0000
vt 0.9317 0.3274 0.0000
vt 0.0677 0.3266 0.0000
vt 0.0677 0.0674 0.0000
vt 0.9082 0.0674 0.0000
vt 0.0000 0.0000 0.0000
vt 0.0000 1.0000 0.0000
vt 1.0000 1.0000 0.0000
vt 0.0713 0.0269 0.0000
vt 0.0749 -0.0136 0.0000
vt 0.8784 -0.0066 0.0000
vt 0.8933 0.0304 0.0000
vt 0.6490 0.0140 0.0000
vt 0.6313 -0.0395 0.0000
vt 0.9220 -0.0299 0.0000
vt 0.9292 0.0187 0.0000
vt 0.0676 0.0063 0.0000
vt 0.0714 -0.0474 0.0000
vt 0.3539 -0.0507 0.0000
vt 0.3436 0.0047 0.0000
vt 0.0708 0.0187 0.0000
vt 0.0780 -0.0299 0.0000
vt 0.3687 -0.0395 0.0000
vt 0.3510 0.0140 0.0000
vt 0.0898 0.0271 0.0000
vt 0.1035 -0.0133 0.0000
vt 0.9125 -0.0194 0.0000
vt 0.9154 0.0240 0.0000
vt 0.6564 0.0047 0.0000
vt 0.6461 -0.0507 0.0000
vt 0.9286 -0.0474 0.0000
vt 0.9324 0.0063 0.0000
vt 0.3404 0.9929 0.0000
vt 0.3474 1.0085 0.0000
vt 0.0777 1.0085 0.0000
vt 0.0707 0.9929 0.0000
vt 0.9293 0.9929 0.0000
vt 0.9223 1.0085 0.0000
vt 0.6526 1.0085 0.0000
vt 0.6596 0.9929 0.0000
vt 0.9323 1.0573 0.0000
vt 0.9323 1.1373 0.0000
vt 0.0677 1.1373 0.0000
vt 0.0677 1.0573 0.0000
vt 0.3333 0.9803 0.0000
vt 0.4585 0.9803 0.0000
vt 0.4585 0.9833 0.0000
vt 0.3333 0.9833 0.0000
vt 0.9363 0.1033 0.0000
vt 0.9645 0.1392 0.0000
vt 0.9821 0.3841 0.0000
vt 0.9569 0.3557 0.0000
vt 0.0315 0.3598 0.0000
vt -0.0050 0.3921 0.0000
vt 0.0047 0.1464 0.0000
vt 0.0404 0.1069 0.0000
vt 1.0418 0.3448 0.0000
vt 1.1512 0.3448 0.0000
vt 1.1512 0.6667 0.0000
vt 1.0418 0.6667 0.0000
vt -0.0418 0.6667 0.0000
vt -0.1512 0.6667 0.0000
vt -0.1512 0.3448 0.0000
vt -0.0418 0.3448 0.0000
vt 0.9379 0.6289 0.0000
vt 0.9435 0.5911 0.0000
vt 0.9894 0.9399 0.0000
vt 0.9608 0.9586 0.0000
vt 0.0392 0.9586 0.0000
vt 0.0106 0.9399 0.0000
vt 0.0565 0.5911 0.0000
vt 0.0621 0.6289 0.0000
vt 0.0131 0.3464 0.0000
vt -0.0375 0.3663 0.0000
vt -0.0305 0.0847 0.0000
vt 0.0166 0.0760 0.0000
vt -0.0175 0.6667 0.0000
vt -0.0987 0.6667 0.0000
vt -0.0987 0.3448 0.0000
vt -0.0175 0.3448 0.0000
vt 0.0335 0.9731 0.0000
vt 0.0032 0.9690 0.0000
vt -0.0018 0.6583 0.0000
vt 0.0310 0.6625 0.0000
vt 0.0307 0.3504 0.0000
vt -0.0062 0.3742 0.0000
vt -0.0083 0.1244 0.0000
vt 0.0297 0.0959 0.0000
vt 0.0094 0.0376 0.0000
vt -0.0162 0.0236 0.0000
vt -0.0262 0.0906 0.0000
vt -0.0388 0.0039 0.0000
vt 0.0094 0.0473 0.0000
vt -0.0162 0.0333 0.0000
vt -0.0262 0.1076 0.0000
vt -0.0388 0.0256 0.0000
vt 0.0124 0.0466 0.0000
vt -0.0097 0.0335 0.0000
vt -0.0183 0.1190 0.0000
vt -0.0206 0.0149 0.0000
vt 0.0102 0.9705 0.0000
vt -0.0115 0.9568 0.0000
vt -0.0230 0.9637 0.0000
vt -0.0230 0.8634 0.0000
vt 0.0067 0.0285 0.0000
vt -0.0030 0.0131 0.0000
vt -0.0371 0.0463 0.0000
vt 0.0252 0.0061 0.0000
vt 0.9634 0.9978 0.0000
vt 0.9538 0.9824 0.0000
vt 0.9173 1.0139 0.0000
vt 0.8978 0.9155 0.0000
vt 0.0222 0.9816 0.0000
vt -0.0030 0.9869 0.0000
vt 0.0252 0.9939 0.0000
vt -0.0371 0.9537 0.0000
vt 0.8921 0.9875 0.0000
vt 0.8181 0.9681 0.0000
vt 0.6361 0.9726 0.0000
vt 0.6361 0.8999 0.0000
vt 0.3333 0.3333 0.0000
vt 0.5415 0.3311 0.0000
vt 0.5420 0.3333 0.0000
vt 0.5415 0.3308 0.0000
vt 0.4585 0.3296 0.0000
vt 0.4585 0.3291 0.0000
vt 0.9236 0.3346 0.0000
vt 0.9487 0.3629 0.0000
vt 0.0068 0.4009 0.0000
vt 0.0432 0.3685 0.0000
vt -0.0349 0.3777 0.0000
vt 0.0157 0.3580 0.0000
vt 0.0022 0.3832 0.0000
vt 0.0392 0.3594 0.0000
vt 0.9454 0.3612 0.0000
vt 0.9704 0.3898 0.0000
vt 0.0412 0.3691 0.0000
vt 0.0774 0.3367 0.0000
vt 0.0663 0.3382 0.0000
vt 0.0762 0.3355 0.0000
vt 0.5415 0.9323 0.0000
vt 0.5415 0.0677 0.0000
vt 0.5415 0.6667 0.0000
vt 0.5415 0.3448 0.0000
vt 0.5415 0.9772 0.0000
vt 0.5415 0.7898 0.0000
vt 0.6667 0.9803 0.0000
vt 0.6667 0.9833 0.0000
vt 0.5415 0.9833 0.0000
vt 0.5415 0.9803 0.0000
vt 0.4580 0.3333 0.0000
vt 0.0005 0.1788 0.0000
vt 0.9995 0.1788 1.0000
vt 0.9995 0.8212 1.0000
vt 0.0005 0.8212 0.0000
vt 0.9088 0.5823 1.0000
vt 0.9088 0.9569 1.0000
vt 0.0912 0.9569 0.0000
vt 0.0912 0.5823 0.0000
vt 0.3333 0.0450 0.0000
vt 0.3333 0.0227 0.0000
vt 0.6667 0.0227 0.0000
vt 0.6667 0.0450 0.0000
vt 0.3333 0.0409 0.0000
vt 0.3333 0.0219 0.0000
vt 0.6667 0.0219 0.0000
vt 0.6667 0.0409 0.0000
# 225 texture coords

g 700480
usemtl 02___Default
s 8
f 1/1/1 2/2/2 3/3/3 4/4/4 
f 5/5/5 6/6/6 7/7/7 8/8/8 
s 131072
f 9/9/9 10/10/10 11/11/11 12/12/12 
f 13/13/12 14/14/9 9/9/9 12/12/12 
f 15/15/13 16/16/9 17/17/12 18/18/14 
s 8
f 19/19/15 20/20/16 21/21/17 22/22/18 
f 23/23/19 24/24/20 25/25/21 26/26/22 
usemtl 07___Default
s 131072
f 27/27/23 28/28/24 29/29/25 30/30/26 
f 31/31/26 32/32/23 27/27/23 30/30/26 
f 33/33/27 34/34/23 35/35/26 36/36/28 
usemtl 02___Default
f 37/37/29 38/38/30 28/28/24 27/27/23 
f 39/39/31 40/40/29 37/37/29 32/32/23 
f 27/27/23 32/32/23 37/37/29 
f 41/41/32 42/42/29 34/34/23 33/33/27 
s 8
f 43/43/33 44/44/34 45/45/35 46/46/36 
s 131072
f 47/47/33 48/48/37 49/49/38 50/50/33 
f 51/51/39 52/52/40 48/48/37 47/47/33 
s 8
f 53/53/41 54/54/42 55/55/43 56/56/44 
f 57/57/45 58/24/41 59/58/46 60/59/47 
s 131072
f 61/27/41 62/28/42 63/29/42 64/30/41 
f 65/31/41 66/32/41 61/27/41 64/30/41 
f 67/33/45 68/34/41 69/35/41 70/36/45 
f 71/37/48 72/38/49 62/28/42 61/27/41 
f 66/32/41 73/40/48 71/37/48 61/27/41 
f 74/41/50 75/42/48 68/34/41 67/33/45 
s 8
f 76/60/51 77/61/52 78/62/53 79/63/54 
s 131072
f 80/47/55 81/48/52 82/49/52 83/50/56 
f 84/51/57 85/52/58 81/48/52 80/47/55 
s 8
f 21/21/17 86/64/59 87/64/60 
f 6/6/6 88/64/61 89/64/62 
f 78/62/53 90/64/63 91/64/64 
f 5/5/5 92/65/65 93/65/66 
s 131072
f 11/11/11 94/64/67 95/64/68 
f 41/41/32 96/66/69 97/66/70 
f 10/10/10 98/65/71 99/65/72 
f 51/51/39 100/66/73 101/66/74 
s 8
f 91/67/64 4/68/4 3/69/3 102/70/75 
f 103/71/76 1/72/1 4/73/4 104/74/77 
f 87/75/60 3/76/3 2/77/2 105/78/78 
f 106/79/79 5/80/5 8/81/8 107/82/80 
f 108/83/81 6/84/6 5/85/5 93/86/66 
f 109/87/78 7/88/7 6/89/6 89/90/62 
s 131072
f 110/91/82 12/92/12 11/93/11 95/94/68 
f 111/95/83 10/96/10 9/97/9 112/98/84 
f 113/99/85 11/100/11 10/101/10 99/102/72 
f 110/103/82 114/104/82 13/105/12 12/106/12 
f 115/103/84 116/104/84 117/105/9 16/106/9 
f 97/95/70 18/96/14 17/97/12 118/98/82 
f 101/99/74 15/100/13 18/101/14 119/102/86 
f 115/91/84 16/92/9 15/93/13 120/94/87 
s 8
f 121/107/88 21/108/17 20/109/16 122/110/89 
f 123/111/90 23/112/19 26/113/22 124/114/91 
usemtl 07___Default
s 131072
f 125/115/92 29/116/25 28/117/24 126/118/93 
f 127/119/94 33/120/27 36/121/28 128/122/95 
usemtl 02___Default
f 126/123/93 28/124/24 38/125/30 129/126/96 
f 130/127/97 41/128/32 33/129/27 127/130/94 
s 8
f 131/131/98 43/132/33 46/133/36 132/134/99 
s 131072
f 133/135/98 47/136/33 50/137/33 134/138/98 
f 135/139/100 51/140/39 47/141/33 133/142/98 
s 8
f 136/143/101 57/144/45 60/145/47 137/146/102 
s 131072
f 138/119/101 67/120/45 70/121/45 139/122/101 
f 140/127/103 74/128/50 67/129/45 138/130/101 
s 8
f 21/21/17 121/147/88 86/64/59 
f 102/148/75 86/64/59 121/147/88 79/149/54 
f 3/150/3 87/64/60 86/64/59 102/148/75 
f 6/6/6 108/151/81 88/64/61 
f 124/152/91 88/64/61 108/151/81 45/153/35 
f 26/154/22 89/64/62 88/64/61 124/152/91 
f 78/62/53 137/155/102 90/64/63 
f 104/156/77 90/64/63 137/155/102 60/157/47 
f 4/158/4 91/64/64 90/64/63 104/156/77 
f 5/5/5 106/159/79 92/65/65 
f 132/160/99 92/65/65 106/159/79 55/161/43 
f 46/162/36 93/65/66 92/65/65 132/160/99 
s 131072
f 11/11/11 113/163/85 94/64/67 
f 129/164/96 94/64/67 113/163/85 84/165/57 
f 38/166/30 95/64/68 94/64/67 129/164/96 
f 41/41/32 130/167/97 96/66/69 
f 119/168/86 96/66/69 130/167/97 52/169/40 
f 18/170/14 97/66/70 96/66/69 119/168/86 
f 10/10/10 111/171/83 98/65/71 
f 140/172/103 98/65/71 111/171/83 74/173/50 
f 85/174/58 99/65/72 98/65/71 140/172/103 
f 51/51/39 135/175/100 100/66/73 
f 120/176/87 100/66/73 135/175/100 72/177/49 
f 15/178/13 101/66/74 100/66/73 120/176/87 
s 8
f 78/62/53 91/67/64 102/70/75 79/63/54 
f 59/58/46 103/71/76 104/74/77 60/59/47 
f 21/21/17 87/75/60 105/78/78 22/22/18 
f 55/55/43 106/79/79 107/82/80 56/56/44 
f 45/45/35 108/83/81 93/86/66 46/46/36 
f 25/25/21 109/87/78 89/90/62 26/26/22 
s 131072
f 37/37/29 110/91/82 95/94/68 38/38/30 
f 74/41/50 111/95/83 112/98/84 75/42/48 
f 84/51/57 113/99/85 99/102/72 85/52/58 
f 37/37/29 40/40/29 114/104/82 110/103/82 
f 71/37/48 73/40/48 116/104/84 115/103/84 
f 41/41/32 97/95/70 118/98/82 42/42/29 
f 51/51/39 101/99/74 119/102/86 52/52/40 
f 71/37/48 115/91/84 120/94/87 72/38/49 
s 8
f 79/63/54 121/107/88 122/110/89 76/60/51 
f 44/44/34 123/111/90 124/114/91 45/45/35 
s 131072
f 83/50/56 125/115/92 126/118/93 80/47/55 
f 48/48/37 127/119/94 128/122/95 49/49/38 
f 80/47/55 126/123/93 129/126/96 84/51/57 
f 52/52/40 130/127/97 127/130/94 48/48/37 
s 8
f 54/54/42 131/131/98 132/134/99 55/55/43 
s 131072
f 62/28/42 133/135/98 134/138/98 63/29/42 
f 72/38/49 135/139/100 133/142/98 62/28/42 
s 8
f 77/61/52 136/143/101 137/146/102 78/62/53 
s 131072
f 81/48/52 138/119/101 139/122/101 82/49/52 
f 85/52/58 140/127/103 138/130/101 81/48/52 
s 1
f 2/2/104 1/1/105 141/1/106 142/2/107 
f 8/8/108 7/7/109 143/7/110 144/8/111 
f 19/19/112 22/22/113 145/22/114 146/179/115 
f 25/25/116 24/24/117 147/24/118 148/25/119 
s 8
f 149/180/120 150/181/121 147/24/121 24/24/20 
s 1
f 53/53/122 56/56/123 151/56/124 152/179/122 
f 59/58/125 58/24/126 153/24/126 154/58/127 
s 4
f 155/182/128 156/181/128 153/24/128 58/24/128 
s 1
f 105/78/129 2/77/104 142/77/107 157/78/130 
f 109/87/131 25/25/116 148/25/119 158/87/132 
f 103/71/133 59/58/125 154/58/127 159/71/134 
f 107/82/135 8/81/108 144/81/111 160/82/136 
f 22/22/113 105/78/129 157/78/130 145/22/114 
f 7/88/109 109/87/131 158/87/132 143/88/110 
f 1/72/105 103/71/133 159/71/134 141/72/106 
f 56/56/123 107/82/135 160/82/136 151/56/124 
usemtl 07___Default
s 8
f 19/19/15 30/30/137 29/29/138 20/20/16 
f 19/19/15 161/183/120 31/31/137 30/30/137 
f 23/23/19 36/36/139 35/35/137 24/24/20 
usemtl 02___Default
f 43/43/33 50/50/33 49/49/140 44/44/34 
f 53/53/41 64/30/41 63/29/42 54/54/42 
s 2
f 53/53/41 162/184/41 65/31/41 64/30/41 
s 8
f 57/57/45 70/36/45 69/35/41 58/24/41 
f 76/60/51 83/50/141 82/49/52 77/61/52 
f 83/185/141 76/60/51 122/110/89 125/186/142 
usemtl 07___Default
f 36/187/139 23/112/19 123/111/90 128/188/143 
usemtl 02___Default
f 50/189/33 43/132/33 131/131/98 134/190/98 
f 70/191/45 57/144/45 136/143/101 139/192/101 
usemtl 07___Default
f 125/193/142 122/110/89 20/109/16 29/194/138 
usemtl 02___Default
f 128/195/143 123/111/90 44/44/34 49/196/140 
f 134/190/98 131/131/98 54/54/42 63/197/42 
f 139/192/101 136/143/101 77/61/52 82/198/52 
s 131072
f 17/17/12 16/16/9 117/199/9 163/200/12 
usemtl 07___Default
f 35/35/26 34/34/23 164/201/23 165/202/26 
usemtl 02___Default
f 34/34/23 42/42/29 166/203/29 167/204/31 
f 164/201/23 34/34/23 167/204/31 
f 69/35/41 68/34/41 168/201/41 169/202/41 
f 68/34/41 75/42/48 170/203/48 168/201/41 
f 118/205/82 17/206/12 163/207/12 171/208/82 
f 112/205/84 9/206/9 14/207/9 172/208/84 
f 42/42/29 118/205/82 171/208/82 166/203/29 
f 75/42/48 112/205/84 172/208/84 170/203/48 
s 8
f 161/183/120 19/19/15 146/179/121 173/209/121 
s 4
f 162/184/128 53/53/128 152/179/128 174/209/128 
usemtl 07___Default
s 8
f 24/24/20 35/35/137 165/202/137 149/180/120 
usemtl 02___Default
s 2
f 58/24/41 69/35/41 169/202/41 155/182/41 
s 131072
f 13/13/12 163/200/12 117/199/9 14/14/9 
usemtl 09___Default
f 31/210/26 165/211/26 164/212/23 32/213/23 
usemtl 01___Default
f 164/214/23 167/215/31 39/216/31 32/217/23 
usemtl 02___Default
f 65/31/41 169/202/41 168/201/41 66/32/41 
f 66/32/41 168/201/41 170/203/48 73/40/48 
f 114/104/82 171/208/82 163/207/12 13/105/12 
f 116/104/84 172/208/84 14/207/9 117/105/9 
f 40/40/29 166/203/29 171/208/82 114/104/82 
f 73/40/48 170/203/48 172/208/84 116/104/84 
s 8
f 149/180/120 161/183/120 173/209/121 150/181/121 
s 4
f 155/182/128 162/184/128 174/209/128 156/181/128 
usemtl 07___Default
s 8
f 161/183/120 149/180/120 165/202/137 31/31/137 
usemtl 02___Default
s 2
f 162/184/41 155/182/41 169/202/41 65/31/41 
s 131072
f 166/203/29 40/40/29 39/39/31 167/204/31 
s 1
f 175/8/1 176/7/7 177/2/7 178/1/1 
f 179/24/144 180/179/144 181/22/145 182/25/145 
s 2
f 183/24/41 184/179/41 185/56/46 186/58/46 
s 1
f 187/218/146 175/219/1 178/220/1 188/221/146 
f 189/222/147 177/223/7 176/224/7 190/225/147 
s 2
f 185/56/46 187/218/148 188/221/148 186/58/46 
s 1
f 181/22/145 189/222/147 190/225/147 182/25/145 
s 4
f 178/1/149 177/2/150 191/2/151 192/1/152 
f 176/7/153 175/8/154 193/8/155 194/7/156 
f 181/22/157 180/179/158 195/179/159 196/22/160 
f 179/24/161 182/25/162 197/25/163 198/24/164 
s 2
f 180/179/165 179/24/165 198/24/165 195/179/165 
s 4
f 185/56/166 184/179/167 199/179/167 200/56/168 
f 183/24/169 186/58/170 201/58/171 202/24/169 
s 1
f 184/179/172 183/24/172 202/24/172 199/179/172 
s 4
f 189/222/173 181/22/157 196/22/160 203/222/174 
f 190/225/175 176/224/153 194/224/156 204/225/176 
f 188/221/177 178/220/149 192/220/152 205/221/178 
f 187/218/179 185/56/166 200/56/168 206/218/180 
f 177/223/150 189/222/173 203/222/174 191/223/151 
f 182/25/162 190/225/175 204/225/176 197/25/163 
f 186/58/170 188/221/177 205/221/178 201/58/171 
f 175/219/154 187/218/179 206/218/180 193/219/155 
# 177 polygons - 18 triangles

