# 3ds Max Wavefront OBJ Exporter v0.97b - (c)2007 guruware
# File Created: 09.05.2018 10:24:45

mtllib 702608.mtl

#
# object 702608
#

v  -2.6329 0.2242 -0.0000
v  -2.6329 5.1826 0.0000
v  -2.5944 5.2978 0.0000
v  -2.4792 5.3363 0.0000
v  2.4792 5.3363 0.0000
v  2.5944 5.2978 0.0000
v  2.6329 5.1826 0.0000
v  2.4792 0.0705 -0.0000
v  2.6329 0.2242 -0.0000
v  2.5944 0.1090 -0.0000
v  -2.5944 0.1090 -0.0000
v  -2.4792 0.0705 -0.0000
v  -2.4792 0.0705 3.4553
v  2.4792 0.0705 3.4553
v  2.5944 0.1090 3.4553
v  2.6329 0.2242 3.4553
v  2.6329 5.1826 3.4553
v  2.5944 5.2978 3.4553
v  2.4792 5.3363 3.4553
v  -2.6329 5.1826 3.4553
v  -2.4792 5.3363 3.4553
v  -2.5944 5.2978 3.4553
v  -2.5944 0.1090 3.4553
v  -2.6329 0.2242 3.4553
v  -2.4901 0.0034 0.0671
v  2.4901 0.0034 0.0671
v  2.4901 0.0034 3.3881
v  -2.4901 0.0034 3.3881
v  2.7000 0.2133 0.0671
v  2.7000 5.1934 0.0671
v  2.7000 5.1934 3.3881
v  2.7000 0.2133 3.3881
v  2.4901 5.4034 0.0671
v  -2.4901 5.4034 0.0671
v  -2.4901 5.4034 3.3881
v  2.4901 5.4034 3.3881
v  -2.7000 5.1934 0.0671
v  -2.7000 0.2133 0.0671
v  -2.7000 0.2133 3.3881
v  -2.7000 5.1934 3.3881
v  2.6475 0.0559 3.3881
v  2.6475 0.0559 0.0671
v  -2.6475 0.0559 0.0671
v  -2.6475 0.0559 3.3881
v  2.6475 5.3509 3.3881
v  2.6475 5.3509 0.0671
v  -2.6475 5.3509 3.3881
v  -2.6475 5.3509 0.0671
v  1.7753 3.5716 3.4512
v  1.6991 3.8063 3.4512
v  1.6484 3.7694 4.0512
v  1.7126 3.5716 4.0512
v  1.4995 3.9513 3.4512
v  1.4801 3.8917 4.0512
v  1.2528 3.9513 3.4512
v  1.2722 3.8917 4.0512
v  1.0532 3.8063 3.4512
v  1.1039 3.7694 4.0512
v  0.9770 3.5716 3.4512
v  1.0397 3.5716 4.0512
v  1.0532 3.3370 3.4512
v  1.1039 3.3739 4.0512
v  1.2528 3.1920 3.4512
v  1.2722 3.2516 4.0512
v  1.4995 3.1920 3.4512
v  1.4801 3.2516 4.0512
v  1.6991 3.3370 3.4512
v  1.6484 3.3739 4.0512
# 68 vertices

vn 0.0000 0.0000 -1.0000
vn 0.0000 -0.0000 1.0000
vn -0.1602 -0.9871 -0.0000
vn 0.1602 -0.9871 -0.0000
vn 0.9871 -0.1602 -0.0000
vn 0.9871 0.1602 0.0000
vn 0.1602 0.9871 0.0000
vn -0.1602 0.9871 0.0000
vn -0.9871 0.1602 0.0000
vn -0.9871 -0.1602 -0.0000
vn 0.7071 -0.7071 -0.0000
vn -0.7071 -0.7071 -0.0000
vn 0.7071 0.7071 0.0000
vn -0.7071 0.7071 0.0000
vn -0.6934 -0.1125 -0.7117
vn -0.6934 0.1125 -0.7117
vn -0.1125 0.6934 -0.7117
vn 0.1125 0.6934 -0.7117
vn 0.6934 0.1125 -0.7117
vn 0.6934 -0.1125 -0.7117
vn 0.1125 -0.6934 -0.7117
vn -0.1125 -0.6934 -0.7117
vn -0.1125 -0.6934 0.7117
vn 0.1125 -0.6934 0.7117
vn 0.6934 -0.1125 0.7117
vn 0.6934 0.1125 0.7117
vn 0.1125 0.6934 0.7117
vn -0.1125 0.6934 0.7117
vn -0.6934 0.1125 0.7117
vn -0.6934 -0.1125 0.7117
vn -0.4714 -0.4714 -0.7454
vn 0.4714 -0.4714 -0.7454
vn -0.4714 0.4714 -0.7454
vn 0.4714 0.4714 -0.7454
vn -0.4714 -0.4714 0.7454
vn 0.4714 -0.4714 0.7454
vn -0.4714 0.4714 0.7454
vn 0.4714 0.4714 0.7454
vn 0.9946 -0.0000 0.1039
vn 0.8046 0.5846 0.1039
vn 0.3073 0.9459 0.1039
vn -0.3073 0.9459 0.1039
vn -0.8046 0.5846 0.1039
vn -0.9946 0.0000 0.1039
vn -0.8046 -0.5846 0.1039
vn -0.3073 -0.9459 0.1039
vn 0.3073 -0.9459 0.1039
vn 0.8046 -0.5846 0.1039
vn 0.0000 0.0000 1.0000
vn -0.0000 -0.0000 1.0000
# 50 vertex normals

vt 0.9876 0.0409 0.0000
vt 0.9876 0.9591 0.0000
vt 0.9805 0.9805 0.0000
vt 0.9591 0.9876 0.0000
vt 0.0409 0.9876 0.0000
vt 0.0195 0.9805 0.0000
vt 0.0124 0.9591 0.0000
vt 0.0409 0.0124 0.0000
vt 0.0124 0.0409 0.0000
vt 0.0195 0.0195 0.0000
vt 0.9805 0.0195 0.0000
vt 0.9591 0.0124 0.0000
vt 0.0389 0.0194 0.0000
vt 0.9611 0.0194 0.0000
vt 0.9611 0.9806 0.0000
vt 0.0389 0.9806 0.0000
vt -0.0041 0.9806 0.0000
vt -0.0471 0.9806 0.0000
vt -0.0471 0.0194 0.0000
vt -0.0041 0.0194 0.0000
vt 1.0041 0.0194 0.0000
vt 1.0471 0.0194 0.0000
vt 1.0471 0.9806 0.0000
vt 1.0041 0.9806 0.0000
vt 0.9591 0.1473 0.0000
vt 0.0409 0.1473 0.0000
vt 0.0409 0.8527 0.0000
vt 0.9591 0.8527 0.0000
vt 1.0120 0.0378 0.0000
vt 1.0024 0.0086 0.0000
vt 0.0378 -0.0120 0.0000
vt 0.0086 -0.0024 0.0000
vt 0.9622 1.0120 0.0000
vt 0.9914 1.0024 0.0000
vt -0.0120 0.9622 0.0000
vt -0.0024 0.9914 0.0000
vt 0.9914 -0.0024 0.0000
vt 0.9622 -0.0120 0.0000
vt -0.0024 0.0086 0.0000
vt -0.0120 0.0378 0.0000
vt 1.0024 0.9914 0.0000
vt 1.0120 0.9622 0.0000
vt 0.0086 1.0024 0.0000
vt 0.0378 1.0120 0.0000
vt 0.6500 1.2946 0.6669
vt 0.6500 1.3927 0.6350
vt 0.3500 1.3773 0.6138
vt 0.3500 1.2946 0.6407
vt 0.6350 0.6500 1.3927
vt 0.5516 0.6500 1.4533
vt 0.5435 0.3500 1.4284
vt 0.6138 0.3500 1.3773
vt 0.4484 0.6500 1.4533
vt 0.4565 0.3500 1.4284
vt 0.3650 0.6500 1.3927
vt 0.3862 0.3500 1.3773
vt 0.3500 1.3927 0.3650
vt 0.3500 1.2946 0.3331
vt 0.6500 1.2946 0.3593
vt 0.6500 1.3773 0.3862
vt 0.3500 1.1965 0.3650
vt 0.6500 1.2119 0.3862
vt 0.6350 0.6500 1.1965
vt 0.5516 0.6500 1.1358
vt 0.5435 0.3500 1.1608
vt 0.6138 0.3500 1.2119
vt 0.4484 0.6500 1.1358
vt 0.4565 0.3500 1.1608
vt 0.3650 0.6500 1.1965
vt 0.3862 0.3500 1.2119
vt 0.6500 1.1965 0.6350
vt 0.3500 1.2119 0.6138
vt 0.6407 1.2946 0.3500
vt 0.6138 1.3773 0.3500
vt 0.5435 1.4284 0.3500
vt 0.5435 1.1608 0.3500
vt 0.4565 1.4284 0.3500
vt 0.3862 1.3773 0.3500
vt 0.3593 1.2946 0.3500
vt 0.3862 1.2119 0.3500
vt 0.4565 1.1608 0.3500
vt 0.6138 1.2119 0.3500
# 82 texture coords

g 702608
usemtl 02___Default
s 1
f 1/1/1 2/2/1 3/3/1 4/4/1 
f 4/4/1 5/5/1 6/6/1 7/7/1 
f 1/1/1 4/4/1 7/7/1 8/8/1 
f 7/7/1 9/9/1 10/10/1 8/8/1 
f 11/11/1 1/1/1 8/8/1 12/12/1 
usemtl 01___Default
f 13/8/2 14/12/2 15/11/2 16/1/2 
f 16/1/2 17/2/2 18/3/2 19/4/2 
f 13/8/2 16/1/2 19/4/2 20/7/2 
f 19/4/2 21/5/2 22/6/2 20/7/2 
f 23/10/2 13/8/2 20/7/2 24/9/2 
usemtl 02___Default
f 25/13/3 26/14/4 27/15/4 28/16/3 
f 29/13/5 30/14/6 31/15/6 32/16/5 
f 33/13/7 34/14/8 35/15/8 36/16/7 
f 37/13/9 38/14/10 39/15/10 40/16/9 
f 41/17/11 27/18/4 26/19/4 42/20/11 
f 43/21/12 25/22/3 28/23/3 44/24/12 
f 45/17/13 31/18/6 30/19/6 46/20/13 
f 47/17/14 35/18/8 34/19/8 48/20/14 
f 32/16/5 41/17/11 42/20/11 29/13/5 
f 38/14/10 43/21/12 44/24/12 39/15/10 
f 36/16/7 45/17/13 46/20/13 33/13/7 
f 40/16/9 47/17/14 48/20/14 37/13/9 
s 4
f 1/25/15 38/14/15 37/13/16 2/26/16 
f 4/25/17 34/14/17 33/13/18 5/26/18 
f 7/25/19 30/14/19 29/13/20 9/26/20 
f 8/25/21 26/14/21 25/13/22 12/26/22 
f 13/27/23 28/16/23 27/15/24 14/28/24 
f 16/27/25 32/16/25 31/15/26 17/28/26 
f 19/27/27 36/16/27 35/15/28 21/28/28 
f 20/27/29 40/16/29 39/15/30 24/28/30 
f 38/29/15 1/1/15 11/11/31 43/30/31 
f 26/31/21 8/8/21 10/10/32 42/32/32 
f 34/33/17 4/4/17 3/3/33 48/34/33 
f 30/35/19 7/7/19 6/6/34 46/36/34 
f 28/31/23 13/8/23 23/10/35 44/32/35 
f 32/29/25 16/1/25 15/11/36 41/30/36 
f 40/35/29 20/7/29 22/6/37 47/36/37 
f 36/33/27 19/4/27 18/3/38 45/34/38 
f 43/37/31 11/11/31 12/12/22 25/38/22 
f 42/39/32 10/10/32 9/9/20 29/40/20 
f 48/41/33 3/3/33 2/2/16 37/42/16 
f 46/43/34 6/6/34 5/5/18 33/44/18 
f 44/39/35 23/10/35 24/9/30 39/40/30 
f 41/37/36 15/11/36 14/12/24 27/38/24 
f 47/43/37 22/6/37 21/5/28 35/44/28 
f 45/41/38 18/3/38 17/2/26 31/42/26 
s 8
f 49/45/39 50/46/40 51/47/40 52/48/39 
f 50/49/40 53/50/41 54/51/41 51/52/40 
f 53/50/41 55/53/42 56/54/42 54/51/41 
f 55/53/42 57/55/43 58/56/43 56/54/42 
f 57/57/43 59/58/44 60/59/44 58/60/43 
f 59/58/44 61/61/45 62/62/45 60/59/44 
f 61/63/45 63/64/46 64/65/46 62/66/45 
f 63/64/46 65/67/47 66/68/47 64/65/46 
f 65/67/47 67/69/48 68/70/48 66/68/47 
f 67/71/48 49/45/39 52/48/39 68/72/48 
s 1
f 52/73/2 51/74/49 54/75/2 66/76/2 
f 54/75/2 56/77/2 58/78/50 66/76/2 
f 58/78/50 60/79/2 62/80/2 66/76/2 
f 62/80/2 64/81/2 66/76/2 
f 68/82/2 52/73/2 66/76/2 
# 59 polygons - 2 triangles

