# 3ds Max Wavefront OBJ Exporter v0.97b - (c)2007 guruware
# File Created: 09.05.2018 10:25:07

mtllib 702614.mtl

#
# object 702614
#

v  -1.4240 0.0000 3.4245
v  -1.4240 0.0000 0.0765
v  1.4240 0.0000 0.0765
v  1.4240 0.0000 3.4245
v  -1.4240 5.6180 3.4245
v  1.4240 5.6180 3.4245
v  1.4240 5.6180 0.0765
v  -1.4240 5.6180 0.0765
v  1.4240 0.0760 3.5005
v  1.4240 1.8154 3.5005
v  -1.4240 1.8154 3.5005
v  -1.4240 0.0760 3.5005
v  1.5000 0.0760 0.0765
v  1.5000 1.8154 0.0765
v  1.5000 1.8154 3.4245
v  1.5000 0.0760 3.4245
v  -1.4240 0.0760 0.0005
v  -1.4240 1.8154 0.0005
v  1.4240 1.8154 0.0005
v  1.4240 0.0760 0.0005
v  -1.5000 0.0760 3.4245
v  -1.5000 1.8154 3.4245
v  -1.5000 1.8154 0.0765
v  -1.5000 0.0760 0.0765
v  -1.4240 5.5420 3.5005
v  -1.5000 5.5420 3.4245
v  1.5000 5.5420 3.4245
v  1.4240 5.5420 3.5005
v  -1.5000 5.5420 0.0765
v  -1.4240 5.5420 0.0005
v  1.4240 5.5420 0.0005
v  1.5000 5.5420 0.0765
v  -0.8117 0.2738 3.4896
v  -0.8117 1.6736 3.4896
v  0.7930 1.6736 3.4896
v  0.7930 0.2738 3.4896
v  -0.7221 0.3520 3.6774
v  0.7033 0.3520 3.6774
v  0.7033 1.5954 3.6774
v  -0.7221 1.5954 3.6774
# 40 vertices

vn 0.0000 -1.0000 -0.0000
vn 0.0000 1.0000 -0.0000
vn 0.0000 0.0000 1.0000
vn 1.0000 0.0000 -0.0000
vn 0.0000 0.0000 -1.0000
vn -1.0000 0.0000 -0.0000
vn -0.5774 -0.5774 0.5774
vn 0.5774 -0.5774 0.5774
vn -0.5774 -0.5774 -0.5774
vn 0.5774 -0.5774 -0.5774
vn -0.5774 0.5773 0.5774
vn 0.5774 0.5773 0.5774
vn -0.5774 0.5773 -0.5774
vn 0.5774 0.5773 -0.5774
vn -0.7071 -0.7071 -0.0000
vn 0.0000 -0.7071 -0.7071
vn 0.7071 -0.7071 -0.0000
vn 0.0000 -0.7071 0.7071
vn 0.0000 0.7071 0.7071
vn 0.7071 0.7071 -0.0000
vn 0.0000 0.7071 -0.7071
vn -0.7071 0.7071 -0.0000
vn 0.7071 0.0000 0.7071
vn -0.7071 0.0000 0.7071
vn 0.7071 0.0000 -0.7071
vn -0.7071 0.0000 -0.7071
vn 0.0000 -0.0000 1.0000
vn 0.0000 -0.9232 0.3844
vn 0.9024 -0.0000 0.4308
vn 0.0000 0.9232 0.3844
vn -0.9024 -0.0000 0.4308
# 31 vertex normals

vt 0.9747 0.0217 0.0000
vt 0.9747 0.9783 0.0000
vt 0.0253 0.9783 0.0000
vt 0.0253 0.0217 0.0000
vt 0.9747 0.0138 0.0000
vt 0.9747 0.3301 0.0000
vt 0.0253 0.3301 0.0000
vt 0.0253 0.0138 0.0000
vt 0.9783 0.0138 0.0000
vt 0.9783 0.3301 0.0000
vt 0.0217 0.3301 0.0000
vt 0.0217 0.0138 0.0000
vt -0.0016 0.0252 0.0000
vt 0.0013 -0.0018 0.0000
vt -0.0016 0.0320 0.0000
vt 0.0013 0.0061 0.0000
vt -0.0026 0.0305 0.0000
vt -0.0026 0.0018 0.0000
vt 0.0013 0.9939 0.0000
vt -0.0016 0.9680 0.0000
vt 0.0253 0.9862 0.0000
vt 0.0013 1.0018 0.0000
vt -0.0016 0.9748 0.0000
vt 0.0217 0.9862 0.0000
vt -0.0026 0.9982 0.0000
vt -0.0026 0.9695 0.0000
vt 0.9783 0.0495 0.0000
vt 0.0217 0.0495 0.0000
vt 0.9747 0.0496 0.0000
vt 0.0253 0.0496 0.0000
vt 0.0253 0.9504 0.0000
vt 0.9747 0.9862 0.0000
vt 0.9747 0.9504 0.0000
vt 0.0217 0.9505 0.0000
vt 0.9783 0.9862 0.0000
vt 0.9783 0.9505 0.0000
vt 0.0041 0.3301 0.0000
vt 0.0041 0.0138 0.0000
vt 0.9959 0.3301 0.0000
vt 0.9959 0.9862 0.0000
vt 0.0035 0.3301 0.0000
vt 0.0035 0.0138 0.0000
vt 0.9995 0.9995 0.7500
vt 0.0005 0.9995 0.0000
vt 0.0005 0.0005 0.1250
vt 0.9995 0.0005 0.8750
vt 0.0041 0.9862 0.0000
vt 0.9959 0.0138 0.0000
vt 0.0035 0.9862 0.0000
vt 0.0005 0.0005 0.0005
vt 0.0005 0.9995 0.0005
vt 0.9995 0.9995 0.0005
vt 0.9995 0.0005 0.0005
vt 0.0563 0.0563 0.9995
vt 0.9437 0.0563 0.9995
vt 0.9437 0.9437 0.9995
vt 0.0563 0.9437 0.9995
# 57 texture coords

g 702614
usemtl 02___Default
s 2
f 1/1/1 2/2/1 3/3/1 4/4/1 
s 4
f 5/4/2 6/1/2 7/2/2 8/3/2 
s 8
f 9/5/3 10/6/3 11/7/3 12/8/3 
s 16
f 13/9/4 14/10/4 15/11/4 16/12/4 
s 32
f 17/5/5 18/6/5 19/7/5 20/8/5 
s 64
f 21/9/6 22/10/6 23/11/6 24/12/6 
s off
f 12/8/7 21/13/7 1/14/7 
f 4/4/8 16/15/8 9/16/8 
f 24/12/9 17/17/9 2/18/9 
f 3/3/10 20/19/10 13/20/10 
f 25/21/11 5/22/11 26/23/11 
f 27/24/12 6/25/12 28/26/12 
f 29/24/13 8/25/13 30/26/13 
f 31/21/14 7/22/14 32/23/14 
f 1/27/15 21/9/15 24/12/15 2/28/15 
f 2/29/16 17/5/16 20/8/16 3/30/16 
f 3/27/17 13/9/17 16/12/17 4/28/17 
f 4/29/18 9/5/18 12/8/18 1/30/18 
f 5/31/19 25/21/19 28/32/19 6/33/19 
f 6/34/20 27/24/20 32/35/20 7/36/20 
f 7/31/21 31/21/21 30/32/21 8/33/21 
f 8/34/22 29/24/22 26/35/22 5/36/22 
f 16/12/23 15/11/23 10/37/23 9/38/23 
f 26/35/24 22/10/24 11/39/24 25/40/24 
f 20/8/25 19/7/25 14/41/25 13/42/25 
f 24/12/26 23/11/26 18/37/26 17/38/26 
usemtl 01___Default
s 8
f 28/43/3 25/44/3 11/45/3 10/46/3 
usemtl 02___Default
s 16
f 32/35/4 27/24/4 15/11/4 14/10/4 
s 32
f 30/32/5 31/21/5 19/7/5 18/6/5 
s 64
f 26/35/6 29/24/6 23/11/6 22/10/6 
s off
f 27/24/23 28/47/23 10/37/23 15/11/23 
f 21/9/24 12/48/24 11/39/24 22/10/24 
f 31/21/25 32/49/25 14/41/25 19/7/25 
f 29/24/26 30/47/26 18/37/26 23/11/26 
usemtl 03___Default
s 2
f 33/50/5 34/51/5 35/52/5 36/53/5 
s 4
f 37/54/27 38/55/27 39/56/27 40/57/27 
s 8
f 33/50/28 36/53/28 38/55/28 37/54/28 
s 16
f 36/53/29 35/52/29 39/56/29 38/55/29 
s 32
f 35/52/30 34/51/30 40/57/30 39/56/30 
s 64
f 34/51/31 33/50/31 37/54/31 40/57/31 
# 32 polygons - 8 triangles

