# 3ds Max Wavefront OBJ Exporter v0.97b - (c)2007 guruware
# File Created: 09.05.2018 10:30:29

mtllib 702898.mtl

#
# object 702898
#

v  -4.1396 0.6150 0.0045
v  -4.1396 10.8066 0.0045
v  -4.0763 10.9967 0.0045
v  -3.8862 11.0600 0.0045
v  3.8830 11.0600 0.0045
v  4.0730 10.9967 0.0045
v  4.1364 10.8066 0.0045
v  3.8830 0.3616 0.0045
v  4.1364 0.6150 0.0045
v  4.0730 0.4249 0.0045
v  -4.0763 0.4249 0.0045
v  -3.8862 0.3616 0.0045
v  -3.8862 0.3616 6.3760
v  3.8830 0.3616 6.3760
v  4.0730 0.4249 6.3760
v  4.1364 0.6150 6.3760
v  4.1364 10.8066 6.3760
v  4.0730 10.9967 6.3760
v  3.8830 11.0600 6.3760
v  -4.1396 10.8066 6.3760
v  -3.8862 11.0600 6.3760
v  -4.0763 10.9967 6.3760
v  -4.0763 0.4249 6.3760
v  -4.1396 0.6150 6.3760
v  -3.9084 0.2248 0.1413
v  3.9052 0.2248 0.1413
v  3.9052 0.2248 3.7146
v  -3.9084 0.2248 3.7146
v  -4.1449 -0.0117 3.8881
v  4.1417 -0.0117 3.8881
v  4.1417 -0.0117 4.3591
v  -4.1449 -0.0117 4.3591
v  -3.9084 0.2248 4.5326
v  3.9052 0.2248 4.5326
v  3.9052 0.2248 6.2392
v  -3.9084 0.2248 6.2392
v  4.2732 0.5928 0.1413
v  4.2732 10.8288 0.1413
v  4.2732 10.8288 3.7146
v  4.2732 0.5928 3.7146
v  4.5097 0.3562 3.8881
v  4.5097 11.0653 3.8881
v  4.5097 11.0653 4.3591
v  4.5097 0.3562 4.3591
v  4.2732 0.5928 4.5326
v  4.2732 10.8288 4.5326
v  4.2732 10.8288 6.2392
v  4.2732 0.5928 6.2392
v  3.9052 11.1968 0.1413
v  -3.9084 11.1968 0.1413
v  -3.9084 11.1968 3.7146
v  3.9052 11.1968 3.7146
v  4.1417 11.4333 3.8881
v  -4.1449 11.4333 3.8881
v  -4.1449 11.4333 4.3591
v  4.1417 11.4333 4.3591
v  3.9052 11.1968 4.5326
v  -3.9084 11.1968 4.5326
v  -3.9084 11.1968 6.2392
v  3.9052 11.1968 6.2392
v  -4.2764 10.8288 0.1413
v  -4.2764 0.5928 0.1413
v  -4.2764 0.5928 3.7146
v  -4.2764 10.8288 3.7146
v  -4.5129 11.0653 3.8881
v  -4.5129 0.3562 3.8881
v  -4.5129 0.3562 4.3591
v  -4.5129 11.0653 4.3591
v  -4.2764 10.8288 4.5326
v  -4.2764 0.5928 4.5326
v  -4.2764 0.5928 6.2392
v  -4.2764 10.8288 6.2392
v  4.1812 0.3168 3.7146
v  4.1812 0.3168 0.1413
v  -4.1844 0.3168 0.1413
v  -4.1844 0.3168 3.7146
v  4.4177 0.0803 4.3591
v  4.4177 0.0803 3.8881
v  -4.4209 0.0803 3.8881
v  -4.4209 0.0803 4.3591
v  4.1812 0.3168 6.2392
v  4.1812 0.3168 4.5326
v  -4.1844 0.3168 4.5326
v  -4.1844 0.3168 6.2392
v  4.1812 11.1048 3.7146
v  4.1812 11.1048 0.1413
v  4.4177 11.3413 4.3591
v  4.4177 11.3413 3.8881
v  4.1812 11.1048 6.2392
v  4.1812 11.1048 4.5326
v  -4.1844 11.1048 3.7146
v  -4.1844 11.1048 0.1413
v  -4.4209 11.3413 4.3591
v  -4.4209 11.3413 3.8881
v  -4.1844 11.1048 6.2392
v  -4.1844 11.1048 4.5326
v  4.5860 6.1527 1.2694
v  4.5860 6.6199 1.0679
v  4.5860 6.6199 2.8104
v  4.5860 6.1527 2.6089
v  4.5860 7.0871 1.0679
v  4.5860 7.0871 2.8104
v  4.5860 7.5542 1.2694
v  4.5860 7.5542 2.6089
v  4.2731 6.1527 2.6089
v  4.2731 6.1527 1.2694
v  4.2731 6.6199 2.8104
v  4.2731 7.0871 2.8104
v  4.2731 7.5542 2.6089
v  4.2731 7.5542 1.2694
v  4.2731 7.0871 1.0679
v  4.2731 6.6199 1.0679
v  4.5860 4.0682 1.2694
v  4.5860 4.5354 1.0679
v  4.5860 4.5354 2.8104
v  4.5860 4.0682 2.6089
v  4.5860 5.0026 1.0679
v  4.5860 5.0026 2.8104
v  4.5860 5.4697 1.2694
v  4.5860 5.4697 2.6089
v  4.2731 4.0682 2.6089
v  4.2731 4.0682 1.2694
v  4.2731 4.5354 2.8104
v  4.2731 5.0026 2.8104
v  4.2731 5.4697 2.6089
v  4.2731 5.4697 1.2694
v  4.2731 5.0026 1.0679
v  4.2731 4.5354 1.0679
v  -4.5860 4.0682 1.2694
v  -4.5860 4.0682 2.6089
v  -4.5860 4.5354 2.8104
v  -4.5860 4.5354 1.0679
v  -4.5860 5.0026 2.8104
v  -4.5860 5.0026 1.0679
v  -4.5860 5.4697 2.6089
v  -4.5860 5.4697 1.2694
v  -4.2731 4.0682 1.2694
v  -4.2731 4.0682 2.6089
v  -4.2731 4.5354 2.8104
v  -4.2731 5.0026 2.8104
v  -4.2731 5.4697 2.6089
v  -4.2731 5.4697 1.2694
v  -4.2731 5.0026 1.0679
v  -4.2731 4.5354 1.0679
v  -4.5860 6.1527 1.2694
v  -4.5860 6.1527 2.6089
v  -4.5860 6.6199 2.8104
v  -4.5860 6.6199 1.0679
v  -4.5860 7.0871 2.8104
v  -4.5860 7.0871 1.0679
v  -4.5860 7.5542 2.6089
v  -4.5860 7.5542 1.2694
v  -4.2731 6.1527 1.2694
v  -4.2731 6.1527 2.6089
v  -4.2731 6.6199 2.8104
v  -4.2731 7.0871 2.8104
v  -4.2731 7.5542 2.6089
v  -4.2731 7.5542 1.2694
v  -4.2731 7.0871 1.0679
v  -4.2731 6.6199 1.0679
# 160 vertices

vn 0.0000 0.0000 -1.0000
vn -0.0000 0.0000 -1.0000
vn 0.0000 -0.0000 -1.0000
vn -0.0000 -0.0000 1.0000
vn 0.0000 -0.0000 1.0000
vn -0.1602 -0.9871 -0.0000
vn 0.1602 -0.9871 -0.0000
vn -0.1602 -0.9871 0.0000
vn 0.1602 -0.9871 0.0000
vn 0.9871 -0.1602 -0.0000
vn 0.9871 0.1602 0.0000
vn 0.9871 -0.1602 0.0000
vn 0.9871 0.1602 -0.0000
vn 0.1602 0.9871 0.0000
vn -0.1602 0.9871 0.0000
vn 0.1602 0.9871 -0.0000
vn -0.1602 0.9871 -0.0000
vn -0.9871 0.1602 0.0000
vn -0.9871 -0.1602 -0.0000
vn -0.9871 0.1602 -0.0000
vn -0.9871 -0.1602 0.0000
vn -0.0543 -0.5548 -0.8302
vn 0.0543 -0.5548 -0.8302
vn 0.1098 -0.5142 -0.8506
vn -0.1098 -0.5142 -0.8506
vn 0.5548 -0.0543 -0.8302
vn 0.5547 0.0543 -0.8302
vn 0.5142 0.1098 -0.8506
vn 0.5142 -0.1098 -0.8506
vn 0.0543 0.5547 -0.8302
vn -0.0543 0.5547 -0.8302
vn -0.1098 0.5142 -0.8506
vn 0.1098 0.5142 -0.8506
vn -0.5547 0.0543 -0.8302
vn -0.5548 -0.0543 -0.8302
vn -0.5142 -0.1098 -0.8506
vn -0.5142 0.1098 -0.8506
vn 0.0543 -0.5547 0.8302
vn -0.0543 -0.5547 0.8302
vn -0.1098 -0.5142 0.8506
vn 0.1098 -0.5142 0.8506
vn -0.5547 -0.0543 0.8302
vn -0.5547 0.0543 0.8302
vn -0.5142 0.1098 0.8506
vn -0.5142 -0.1098 0.8506
vn -0.0543 0.5548 0.8302
vn 0.0543 0.5548 0.8302
vn 0.1098 0.5142 0.8506
vn -0.1098 0.5142 0.8506
vn 0.5547 0.0543 0.8302
vn 0.5547 -0.0543 0.8302
vn 0.5142 -0.1098 0.8506
vn 0.5142 0.1098 0.8506
vn 0.3162 -0.9487 -0.0000
vn -0.3162 -0.9487 -0.0000
vn 0.3162 -0.9487 0.0000
vn -0.3162 -0.9487 0.0000
vn 0.9487 0.3162 0.0000
vn 0.9487 0.3162 -0.0000
vn -0.3162 0.9487 0.0000
vn -0.3162 0.9487 -0.0000
vn -0.3256 -0.3256 -0.8877
vn 0.3256 -0.3256 -0.8877
vn 0.3256 0.3256 -0.8877
vn -0.3256 0.3256 -0.8877
vn 0.3256 -0.3256 0.8877
vn -0.3256 -0.3256 0.8877
vn -0.3256 0.3256 0.8877
vn 0.3256 0.3256 0.8877
vn 0.9487 -0.3162 -0.0000
vn -0.9487 -0.3162 -0.0000
vn 0.9487 -0.3162 0.0000
vn -0.9487 -0.3162 0.0000
vn 0.3162 0.9487 0.0000
vn 0.3162 0.9487 -0.0000
vn -0.9487 0.3162 0.0000
vn -0.9487 0.3162 -0.0000
vn -0.6934 -0.1125 -0.7117
vn -0.6934 0.1125 -0.7117
vn -0.1125 0.6934 -0.7117
vn 0.1125 0.6934 -0.7117
vn 0.6934 0.1125 -0.7117
vn 0.6934 -0.1125 -0.7117
vn 0.1125 -0.6934 -0.7117
vn -0.1125 -0.6934 -0.7117
vn -0.1125 -0.6934 0.7117
vn 0.1125 -0.6934 0.7117
vn 0.6934 -0.1125 0.7117
vn 0.6934 0.1125 0.7117
vn 0.1125 0.6934 0.7117
vn -0.1125 0.6934 0.7117
vn -0.6934 0.1125 0.7117
vn -0.6934 -0.1125 0.7117
vn -0.4714 -0.4714 -0.7454
vn 0.4714 -0.4714 -0.7454
vn -0.4714 0.4714 -0.7454
vn 0.4714 0.4714 -0.7454
vn -0.4714 -0.4714 0.7454
vn 0.4714 -0.4714 0.7454
vn -0.4714 0.4714 0.7454
vn 0.4714 0.4714 0.7454
vn 1.0000 0.0000 0.0000
vn 1.0000 -0.0000 0.0000
vn -0.0000 -1.0000 0.0000
vn 0.0000 -1.0000 0.0000
vn 0.0000 -0.3960 0.9182
vn -0.0000 -0.2022 0.9793
vn 0.0000 -0.2022 0.9793
vn -0.0000 0.2022 0.9793
vn -0.0000 0.3960 0.9182
vn 0.0000 1.0000 -0.0000
vn 0.0000 0.3960 -0.9182
vn 0.0000 0.2022 -0.9793
vn 0.0000 -0.2022 -0.9793
vn 0.0000 -0.3960 -0.9182
vn -0.0000 -0.3960 0.9182
vn 0.0000 0.3960 0.9182
vn 0.0000 1.0000 0.0000
vn -1.0000 0.0000 -0.0000
vn 0.0000 0.2022 0.9793
# 120 vertex normals

vt 0.9509 0.0552 0.1004
vt 0.9509 0.9448 0.1004
vt 0.9440 0.9614 0.1004
vt 0.9233 0.9669 0.1004
vt 0.0771 0.9669 0.1004
vt 0.0564 0.9614 0.1004
vt 0.0495 0.9448 0.1004
vt 0.0771 0.0331 0.1004
vt 0.0495 0.0552 0.1004
vt 0.0564 0.0386 0.1004
vt 0.9440 0.0386 0.1004
vt 0.9233 0.0331 0.1004
vt 0.0311 0.0005 0.5000
vt 0.9689 0.0005 0.5000
vt 0.9919 0.0064 0.5000
vt 0.9995 0.0242 0.5000
vt 0.9995 0.9758 -0.5000
vt 0.9919 0.9936 -0.5000
vt 0.9689 0.9995 -0.5000
vt 0.0005 0.9758 -0.5000
vt 0.0311 0.9995 -0.5000
vt 0.0081 0.9936 -0.5000
vt 0.0081 0.0064 0.5000
vt 0.0005 0.0242 0.5000
vt 0.0743 0.1176 0.0211
vt 0.9253 0.1176 0.0211
vt 0.9253 0.5658 0.0211
vt 0.0743 0.5658 0.0211
vt 0.0485 0.5875 0.0005
vt 0.9511 0.5875 0.0005
vt 0.9511 0.6466 0.0005
vt 0.0485 0.6466 0.0005
vt 0.0743 0.6684 0.0211
vt 0.9253 0.6684 0.0211
vt 0.9253 0.8824 0.0211
vt 0.0743 0.8824 0.0211
vt 0.0533 0.1176 0.9654
vt 0.9467 0.1176 0.9654
vt 0.9467 0.5658 0.9654
vt 0.0533 0.5658 0.9654
vt 0.0326 0.5875 0.9912
vt 0.9674 0.5875 0.9912
vt 0.9674 0.6466 0.9912
vt 0.0326 0.6466 0.9912
vt 0.0533 0.6684 0.9654
vt 0.9467 0.6684 0.9654
vt 0.9467 0.8824 0.9654
vt 0.0533 0.8824 0.9654
vt 0.0747 0.1176 0.9789
vt 0.9257 0.1176 0.9789
vt 0.9257 0.5658 0.9789
vt 0.0747 0.5658 0.9789
vt 0.0489 0.5875 0.9995
vt 0.9515 0.5875 0.9995
vt 0.9515 0.6466 0.9995
vt 0.0489 0.6466 0.9995
vt 0.0747 0.6684 0.9789
vt 0.9257 0.6684 0.9789
vt 0.9257 0.8824 0.9789
vt 0.0747 0.8824 0.9789
vt 0.0533 0.1176 0.0342
vt 0.9467 0.1176 0.0342
vt 0.9467 0.5658 0.0342
vt 0.0533 0.5658 0.0342
vt 0.0326 0.5875 0.0085
vt 0.9674 0.5875 0.0085
vt 0.9674 0.6466 0.0085
vt 0.0326 0.6466 0.0085
vt 0.0533 0.6684 0.0342
vt 0.9467 0.6684 0.0342
vt 0.9467 0.8824 0.0342
vt 0.0533 0.8824 0.0342
vt 0.9257 0.0211 0.5658
vt 0.0747 0.0211 0.5658
vt 0.0489 0.0005 0.5875
vt 0.9515 0.0005 0.5875
vt 0.0346 0.0533 0.5658
vt 0.0346 0.9467 0.5658
vt 0.0088 0.9674 0.5875
vt 0.0088 0.0326 0.5875
vt 0.0747 0.9789 0.5658
vt 0.9257 0.9789 0.5658
vt 0.9515 0.9995 0.5875
vt 0.0489 0.9995 0.5875
vt 0.9658 0.9467 0.5658
vt 0.9658 0.0533 0.5658
vt 0.9915 0.0326 0.5875
vt 0.9915 0.9674 0.5875
vt 0.9253 0.0211 0.6684
vt 0.0743 0.0211 0.6684
vt 0.0485 0.0005 0.6466
vt 0.9511 0.0005 0.6466
vt 0.0342 0.0533 0.6684
vt 0.0342 0.9467 0.6684
vt 0.0085 0.9674 0.6466
vt 0.0085 0.0326 0.6466
vt 0.0743 0.9789 0.6684
vt 0.9253 0.9789 0.6684
vt 0.9511 0.9995 0.6466
vt 0.0485 0.9995 0.6466
vt 0.9654 0.9467 0.6684
vt 0.9654 0.0533 0.6684
vt 0.9912 0.0326 0.6466
vt 0.9912 0.9674 0.6466
vt 0.9554 0.5658 0.0292
vt 0.9554 0.1176 0.0292
vt 0.0442 0.1176 0.0292
vt 0.0442 0.5658 0.0292
vt 0.9812 0.6466 0.0085
vt 0.9812 0.5875 0.0085
vt 0.0185 0.5875 0.0085
vt 0.0185 0.6466 0.0085
vt 0.9554 0.8824 0.0292
vt 0.9554 0.6684 0.0292
vt 0.0442 0.6684 0.0292
vt 0.0442 0.8824 0.0292
vt 0.9708 0.5658 0.9554
vt 0.9708 0.1176 0.9554
vt 0.9915 0.6466 0.9812
vt 0.9915 0.5875 0.9812
vt 0.9708 0.8824 0.9554
vt 0.9708 0.6684 0.9554
vt 0.9558 0.5658 0.9708
vt 0.9558 0.1176 0.9708
vt 0.9815 0.6466 0.9915
vt 0.9815 0.5875 0.9915
vt 0.9558 0.8824 0.9708
vt 0.9558 0.6684 0.9708
vt 0.9815 0.0085 0.5875
vt 0.9558 0.0292 0.5658
vt 0.0188 0.0085 0.5875
vt 0.0446 0.0292 0.5658
vt 0.0188 0.9915 0.5875
vt 0.0446 0.9708 0.5658
vt 0.9815 0.9915 0.5875
vt 0.9558 0.9708 0.5658
vt 0.9812 0.0085 0.6466
vt 0.9554 0.0292 0.6684
vt 0.0185 0.0085 0.6466
vt 0.0442 0.0292 0.6684
vt 0.0185 0.9915 0.6466
vt 0.0442 0.9708 0.6684
vt 0.9812 0.9915 0.6466
vt 0.9554 0.9708 0.6684
vt 0.0292 0.5658 0.9554
vt 0.0292 0.1176 0.9554
vt 0.9708 0.1176 0.0442
vt 0.9708 0.5658 0.0442
vt 0.0085 0.6466 0.9812
vt 0.0085 0.5875 0.9812
vt 0.9915 0.5875 0.0185
vt 0.9915 0.6466 0.0185
vt 0.0292 0.8824 0.9554
vt 0.0292 0.6684 0.9554
vt 0.9708 0.6684 0.0442
vt 0.9708 0.8824 0.0442
vt 0.0446 0.5658 0.9708
vt 0.0446 0.1176 0.9708
vt 0.0188 0.6466 0.9915
vt 0.0188 0.5875 0.9915
vt 0.0446 0.8824 0.9708
vt 0.0446 0.6684 0.9708
vt 0.0292 0.5658 0.0442
vt 0.0292 0.1176 0.0442
vt 0.0085 0.6466 0.0185
vt 0.0085 0.5875 0.0185
vt 0.0292 0.8824 0.0442
vt 0.0292 0.6684 0.0442
vt 0.9658 0.0533 0.1176
vt 0.9658 0.9467 0.1176
vt 0.9257 0.9789 0.1176
vt 0.0747 0.9789 0.1176
vt 0.0346 0.9467 0.1176
vt 0.0346 0.0533 0.1176
vt 0.0747 0.0211 0.1176
vt 0.9257 0.0211 0.1176
vt 0.0767 0.0331 0.8996
vt 0.0743 0.0211 0.8824
vt 0.9253 0.0211 0.8824
vt 0.9229 0.0331 0.8996
vt 0.9505 0.0552 0.8996
vt 0.9654 0.0533 0.8824
vt 0.9654 0.9467 0.8824
vt 0.9505 0.9448 0.8996
vt 0.9229 0.9669 0.8996
vt 0.9253 0.9789 0.8824
vt 0.0743 0.9789 0.8824
vt 0.0767 0.9669 0.8996
vt 0.0491 0.9448 0.8996
vt 0.0342 0.9467 0.8824
vt 0.0342 0.0533 0.8824
vt 0.0491 0.0552 0.8996
vt 0.9558 0.0292 0.1176
vt 0.0446 0.0292 0.1176
vt 0.9558 0.9708 0.1176
vt 0.0446 0.9708 0.1176
vt 0.0560 0.0386 0.8996
vt 0.0442 0.0292 0.8824
vt 0.9436 0.0386 0.8996
vt 0.9554 0.0292 0.8824
vt 0.0560 0.9614 0.8996
vt 0.0442 0.9708 0.8824
vt 0.9436 0.9614 0.8996
vt 0.9554 0.9708 0.8824
vt 0.5386 0.2591 0.9995
vt 0.5794 0.2338 0.9995
vt 0.5794 0.4524 0.9995
vt 0.5386 0.4271 0.9995
vt 0.6201 0.2338 0.9995
vt 0.6201 0.4524 0.9995
vt 0.6609 0.2591 0.9995
vt 0.6609 0.4271 0.9995
vt 0.9995 0.2591 0.5386
vt 0.9995 0.4271 0.5386
vt 0.9654 0.4271 0.5386
vt 0.9654 0.2591 0.5386
vt 0.9995 0.5386 0.4271
vt 0.9995 0.5794 0.4524
vt 0.9654 0.5794 0.4524
vt 0.9654 0.5386 0.4271
vt 0.9995 0.6201 0.4524
vt 0.9654 0.6201 0.4524
vt 0.9995 0.6609 0.4271
vt 0.9654 0.6609 0.4271
vt 0.0005 0.4271 0.6609
vt 0.0005 0.2591 0.6609
vt 0.0346 0.2591 0.6609
vt 0.0346 0.4271 0.6609
vt 0.0005 0.6609 0.2591
vt 0.0005 0.6201 0.2338
vt 0.0346 0.6201 0.2338
vt 0.0346 0.6609 0.2591
vt 0.0005 0.5794 0.2338
vt 0.0346 0.5794 0.2338
vt 0.0005 0.5386 0.2591
vt 0.0346 0.5386 0.2591
vt 0.3566 0.2591 0.9995
vt 0.3974 0.2338 0.9995
vt 0.3974 0.4524 0.9995
vt 0.3566 0.4271 0.9995
vt 0.4382 0.2338 0.9995
vt 0.4382 0.4524 0.9995
vt 0.4790 0.2591 0.9995
vt 0.4790 0.4271 0.9995
vt 0.9995 0.2591 0.3566
vt 0.9995 0.4271 0.3566
vt 0.9654 0.4271 0.3566
vt 0.9654 0.2591 0.3566
vt 0.9995 0.3566 0.4271
vt 0.9995 0.3974 0.4524
vt 0.9654 0.3974 0.4524
vt 0.9654 0.3566 0.4271
vt 0.9995 0.4382 0.4524
vt 0.9654 0.4382 0.4524
vt 0.9995 0.4790 0.4271
vt 0.9654 0.4790 0.4271
vt 0.0005 0.4271 0.4790
vt 0.0005 0.2591 0.4790
vt 0.0346 0.2591 0.4790
vt 0.0346 0.4271 0.4790
vt 0.0005 0.4790 0.2591
vt 0.0005 0.4382 0.2338
vt 0.0346 0.4382 0.2338
vt 0.0346 0.4790 0.2591
vt 0.0005 0.3974 0.2338
vt 0.0346 0.3974 0.2338
vt 0.0005 0.3566 0.2591
vt 0.0346 0.3566 0.2591
vt 0.6434 0.2591 0.0005
vt 0.6434 0.4271 0.0005
vt 0.6026 0.4524 0.0005
vt 0.6026 0.2338 0.0005
vt 0.5618 0.4524 0.0005
vt 0.5618 0.2338 0.0005
vt 0.5210 0.4271 0.0005
vt 0.5210 0.2591 0.0005
vt 0.0005 0.2591 0.3566
vt 0.0346 0.2591 0.3566
vt 0.0346 0.4271 0.3566
vt 0.0005 0.4271 0.3566
vt 0.0005 0.3566 0.4271
vt 0.0346 0.3566 0.4271
vt 0.0346 0.3974 0.4524
vt 0.0005 0.3974 0.4524
vt 0.0346 0.4382 0.4524
vt 0.0005 0.4382 0.4524
vt 0.0346 0.4790 0.4271
vt 0.0005 0.4790 0.4271
vt 0.9995 0.4271 0.4790
vt 0.9654 0.4271 0.4790
vt 0.9654 0.2591 0.4790
vt 0.9995 0.2591 0.4790
vt 0.9995 0.4790 0.2591
vt 0.9654 0.4790 0.2591
vt 0.9654 0.4382 0.2338
vt 0.9995 0.4382 0.2338
vt 0.9654 0.3974 0.2338
vt 0.9995 0.3974 0.2338
vt 0.9654 0.3566 0.2591
vt 0.9995 0.3566 0.2591
vt 0.4614 0.2591 0.0005
vt 0.4614 0.4271 0.0005
vt 0.4206 0.4524 0.0005
vt 0.4206 0.2338 0.0005
vt 0.3799 0.4524 0.0005
vt 0.3799 0.2338 0.0005
vt 0.3391 0.4271 0.0005
vt 0.3391 0.2591 0.0005
vt 0.0005 0.2591 0.5386
vt 0.0346 0.2591 0.5386
vt 0.0346 0.4271 0.5386
vt 0.0005 0.4271 0.5386
vt 0.0005 0.5386 0.4271
vt 0.0346 0.5386 0.4271
vt 0.0346 0.5794 0.4524
vt 0.0005 0.5794 0.4524
vt 0.0346 0.6201 0.4524
vt 0.0005 0.6201 0.4524
vt 0.0346 0.6609 0.4271
vt 0.0005 0.6609 0.4271
vt 0.9995 0.4271 0.6609
vt 0.9654 0.4271 0.6609
vt 0.9654 0.2591 0.6609
vt 0.9995 0.2591 0.6609
vt 0.9995 0.6609 0.2591
vt 0.9654 0.6609 0.2591
vt 0.9654 0.6201 0.2338
vt 0.9995 0.6201 0.2338
vt 0.9654 0.5794 0.2338
vt 0.9995 0.5794 0.2338
vt 0.9654 0.5386 0.2591
vt 0.9995 0.5386 0.2591
# 332 texture coords

g 702898
usemtl 01___Default
s 1
f 1/1/1 2/2/1 3/3/1 4/4/1 
f 4/4/1 5/5/1 6/6/1 7/7/2 
f 1/1/1 4/4/1 7/7/2 8/8/2 
f 7/7/2 9/9/1 10/10/2 8/8/2 
f 11/11/3 1/1/1 8/8/2 12/12/3 
usemtl 02___Default
f 13/13/4 14/14/5 15/15/5 16/16/4 
f 16/16/4 17/17/5 18/18/5 19/19/5 
f 13/13/4 16/16/4 19/19/5 20/20/5 
f 19/19/5 21/21/5 22/22/5 20/20/5 
f 23/23/5 13/13/4 20/20/5 24/24/5 
usemtl 01___Default
f 25/25/6 26/26/7 27/27/7 28/28/6 
f 29/29/6 30/30/7 31/31/7 32/32/6 
f 33/33/8 34/34/9 35/35/9 36/36/8 
s 2
f 37/37/10 38/38/11 39/39/11 40/40/10 
f 41/41/10 42/42/11 43/43/11 44/44/10 
f 45/45/12 46/46/13 47/47/13 48/48/12 
s 1
f 49/49/14 50/50/15 51/51/15 52/52/14 
f 53/53/14 54/54/15 55/55/15 56/56/14 
f 57/57/16 58/58/17 59/59/17 60/60/16 
s 2
f 61/61/18 62/62/19 63/63/19 64/64/18 
f 65/65/18 66/66/19 67/67/19 68/68/18 
f 69/69/20 70/70/21 71/71/21 72/72/20 
s 4
f 28/73/22 27/74/23 30/75/24 29/76/25 
f 40/77/26 39/78/27 42/79/28 41/80/29 
f 52/81/30 51/82/31 54/83/32 53/84/33 
f 64/85/34 63/86/35 66/87/36 65/88/37 
f 34/89/38 33/90/39 32/91/40 31/92/41 
f 70/93/42 69/94/43 68/95/44 67/96/45 
f 58/97/46 57/98/47 56/99/48 55/100/49 
f 46/101/50 45/102/51 44/103/52 43/104/53 
s 1
f 73/105/54 27/27/7 26/26/7 74/106/54 
f 75/107/55 25/25/6 28/28/6 76/108/55 
f 77/109/54 31/31/7 30/30/7 78/110/54 
f 79/111/55 29/29/6 32/32/6 80/112/55 
f 81/113/56 35/35/9 34/34/9 82/114/56 
f 83/115/57 33/33/8 36/36/8 84/116/57 
s 2
f 85/117/58 39/39/11 38/38/11 86/118/58 
f 87/119/58 43/43/11 42/42/11 88/120/58 
f 89/121/59 47/47/13 46/46/13 90/122/59 
s 1
f 91/123/60 51/51/15 50/50/15 92/124/60 
f 93/125/60 55/55/15 54/54/15 94/126/60 
f 95/127/61 59/59/17 58/58/17 96/128/61 
s 4
f 79/129/62 66/87/36 63/86/35 76/130/62 
f 78/131/63 30/75/24 27/74/23 73/132/63 
f 88/133/64 42/79/28 39/78/27 85/134/64 
f 94/135/65 54/83/32 51/82/31 91/136/65 
f 77/137/66 44/103/52 45/102/51 82/138/66 
f 80/139/67 32/91/40 33/90/39 83/140/67 
f 93/141/68 68/95/44 69/94/43 96/142/68 
f 87/143/69 56/99/48 57/98/47 90/144/69 
s 2
f 40/40/10 73/145/70 74/146/70 37/37/10 
f 62/62/19 75/147/71 76/148/71 63/63/19 
f 44/44/10 77/149/70 78/150/70 41/41/10 
f 66/66/19 79/151/71 80/152/71 67/67/19 
f 48/48/12 81/153/72 82/154/72 45/45/12 
f 70/70/21 83/155/73 84/156/73 71/71/21 
s 1
f 52/52/14 85/157/74 86/158/74 49/49/14 
f 56/56/14 87/159/74 88/160/74 53/53/14 
f 60/60/16 89/161/75 90/162/75 57/57/16 
s 2
f 64/64/18 91/163/76 92/164/76 61/61/18 
f 68/68/18 93/165/76 94/166/76 65/65/18 
f 72/72/20 95/167/77 96/168/77 69/69/20 
s 4
f 29/76/25 79/129/62 76/130/62 28/73/22 
f 41/80/29 78/131/63 73/132/63 40/77/26 
f 53/84/33 88/133/64 85/134/64 52/81/30 
f 65/88/37 94/135/65 91/136/65 64/85/34 
f 31/92/41 77/137/66 82/138/66 34/89/38 
f 67/96/45 80/139/67 83/140/67 70/93/42 
f 55/100/49 93/141/68 96/142/68 58/97/46 
f 43/104/53 87/143/69 90/144/69 46/101/50 
f 1/1/78 62/169/78 61/170/79 2/2/79 
f 4/4/80 50/171/80 49/172/81 5/5/81 
f 7/7/82 38/173/82 37/174/83 9/9/83 
f 8/8/84 26/175/84 25/176/85 12/12/85 
f 13/177/86 36/178/86 35/179/87 14/180/87 
f 16/181/88 48/182/88 47/183/89 17/184/89 
f 19/185/90 60/186/90 59/187/91 21/188/91 
f 20/189/92 72/190/92 71/191/93 24/192/93 
f 62/169/78 1/1/78 11/11/94 75/193/94 
f 26/175/84 8/8/84 10/10/95 74/194/95 
f 50/171/80 4/4/80 3/3/96 92/195/96 
f 38/173/82 7/7/82 6/6/97 86/196/97 
f 36/178/86 13/177/86 23/197/98 84/198/98 
f 48/182/88 16/181/88 15/199/99 81/200/99 
f 72/190/92 20/189/92 22/201/100 95/202/100 
f 60/186/90 19/185/90 18/203/101 89/204/101 
f 75/193/94 11/11/94 12/12/85 25/176/85 
f 74/194/95 10/10/95 9/9/83 37/174/83 
f 92/195/96 3/3/96 2/2/79 61/170/79 
f 86/196/97 6/6/97 5/5/81 49/172/81 
f 84/198/98 23/197/98 24/192/93 71/191/93 
f 81/200/99 15/199/99 14/180/87 35/179/87 
f 95/202/100 22/201/100 21/188/91 59/187/91 
f 89/204/101 18/203/101 17/184/89 47/183/89 
usemtl 03___Default
s 2
f 97/205/102 98/206/102 99/207/103 100/208/103 
f 98/206/102 101/209/103 102/210/102 99/207/103 
f 101/209/103 103/211/103 104/212/102 102/210/102 
s 8
f 97/213/104 100/214/105 105/215/104 106/216/104 
s 16
f 100/217/106 99/218/107 107/219/108 105/220/106 
f 99/218/107 102/221/109 108/222/109 107/219/108 
f 102/221/109 104/223/110 109/224/110 108/222/109 
s 32
f 104/225/111 103/226/111 110/227/111 109/228/111 
s 64
f 103/229/112 101/230/113 111/231/113 110/232/112 
f 101/230/113 98/233/114 112/234/114 111/231/113 
f 98/233/114 97/235/115 106/236/115 112/234/114 
s 2
f 113/237/102 114/238/102 115/239/103 116/240/103 
f 114/238/102 117/241/103 118/242/102 115/239/103 
f 117/241/103 119/243/103 120/244/102 118/242/102 
s 8
f 113/245/104 116/246/104 121/247/104 122/248/104 
s 16
f 116/249/116 115/250/107 123/251/107 121/252/116 
f 115/250/107 118/253/109 124/254/109 123/251/107 
f 118/253/109 120/255/117 125/256/110 124/254/109 
s 32
f 120/257/118 119/258/118 126/259/118 125/260/118 
s 64
f 119/261/112 117/262/113 127/263/113 126/264/112 
f 117/262/113 114/265/114 128/266/114 127/263/113 
f 114/265/114 113/267/115 122/268/115 128/266/114 
s 2
f 129/269/119 130/270/119 131/271/119 132/272/119 
f 132/272/119 131/271/119 133/273/119 134/274/119 
f 134/274/119 133/273/119 135/275/119 136/276/119 
s 8
f 129/277/105 137/278/105 138/279/105 130/280/105 
s 16
f 130/281/116 138/282/106 139/283/107 131/284/107 
f 131/284/107 139/283/107 140/285/120 133/286/120 
f 133/286/120 140/285/120 141/287/117 135/288/117 
s 32
f 135/289/118 141/290/118 142/291/118 136/292/118 
s 64
f 136/293/112 142/294/112 143/295/113 134/296/113 
f 134/296/113 143/295/113 144/297/114 132/298/114 
f 132/298/114 144/297/114 137/299/115 129/300/115 
s 2
f 145/301/119 146/302/119 147/303/119 148/304/119 
f 148/304/119 147/303/119 149/305/119 150/306/119 
f 150/306/119 149/305/119 151/307/119 152/308/119 
s 8
f 145/309/105 153/310/105 154/311/105 146/312/105 
s 16
f 146/313/106 154/314/106 155/315/108 147/316/108 
f 147/316/108 155/315/108 156/317/120 149/318/120 
f 149/318/120 156/317/120 157/319/117 151/320/117 
s 32
f 151/321/111 157/322/111 158/323/111 152/324/111 
s 64
f 152/325/112 158/326/112 159/327/113 150/328/113 
f 150/328/113 159/327/113 160/329/114 148/330/114 
f 148/330/114 160/329/114 153/331/115 145/332/115 
# 138 polygons

