# 3ds Max Wavefront OBJ Exporter v0.97b - (c)2007 guruware
# File Created: 09.05.2018 10:28:51

mtllib 702825.mtl

#
# object 702825
#

v  -4.1726 0.6271 -0.0012
v  -4.1726 11.0973 -0.0012
v  -4.1084 11.2898 -0.0012
v  -3.9159 11.3540 -0.0012
v  3.9546 11.3540 -0.0012
v  4.1471 11.2898 -0.0012
v  4.2113 11.0973 -0.0012
v  3.9546 0.3704 -0.0012
v  4.2113 0.6271 -0.0012
v  4.1471 0.4346 -0.0012
v  -4.1084 0.4346 -0.0012
v  -3.9159 0.3704 -0.0012
v  -3.9159 0.3704 6.5803
v  3.9546 0.3704 6.5803
v  4.1471 0.4346 6.5803
v  4.2113 0.6271 6.5803
v  4.2113 11.0973 6.5803
v  4.1471 11.2898 6.5803
v  3.9546 11.3540 6.5803
v  -4.1726 11.0973 6.5803
v  -3.9159 11.3540 6.5803
v  -4.1084 11.2898 6.5803
v  -4.1084 0.4346 6.5803
v  -4.1726 0.6271 6.5803
v  -3.9383 0.2319 0.1374
v  3.9771 0.2319 0.1374
v  3.9771 0.2319 4.1081
v  -3.9383 0.2319 4.1081
v  -4.1779 -0.0077 4.2838
v  4.2167 -0.0077 4.2838
v  4.2167 -0.0077 4.7610
v  -4.1779 -0.0077 4.7610
v  -3.9383 0.2319 4.9367
v  3.9771 0.2319 4.9367
v  3.9771 0.2319 6.4417
v  -3.9383 0.2319 6.4417
v  4.3499 0.6046 0.1374
v  4.3499 11.1198 0.1374
v  4.3499 11.1198 4.1081
v  4.3499 0.6046 4.1081
v  4.5895 0.3651 4.2838
v  4.5895 11.3594 4.2838
v  4.5895 11.3594 4.7610
v  4.5895 0.3651 4.7610
v  4.3499 0.6046 4.9367
v  4.3499 11.1198 4.9367
v  4.3499 11.1198 6.4417
v  4.3499 0.6046 6.4417
v  3.9771 11.4926 0.1374
v  -3.9383 11.4926 0.1374
v  -3.9383 11.4926 4.1081
v  3.9771 11.4926 4.1081
v  4.2167 11.7322 4.2838
v  -4.1779 11.7322 4.2838
v  -4.1779 11.7322 4.7610
v  4.2167 11.7322 4.7610
v  3.9771 11.4926 4.9367
v  -3.9383 11.4926 4.9367
v  -3.9383 11.4926 6.4417
v  3.9771 11.4926 6.4417
v  -4.3111 11.1198 0.1374
v  -4.3111 0.6046 0.1374
v  -4.3111 0.6046 4.1081
v  -4.3111 11.1198 4.1081
v  -4.5507 11.3594 4.2838
v  -4.5507 0.3651 4.2838
v  -4.5507 0.3651 4.7610
v  -4.5507 11.3594 4.7610
v  -4.3111 11.1198 4.9367
v  -4.3111 0.6046 4.9367
v  -4.3111 0.6046 6.4417
v  -4.3111 11.1198 6.4417
v  4.2567 0.3251 4.1081
v  4.2567 0.3251 0.1374
v  -4.2179 0.3251 0.1374
v  -4.2179 0.3251 4.1081
v  4.4963 0.0855 4.7610
v  4.4963 0.0855 4.2838
v  -4.4575 0.0855 4.2838
v  -4.4575 0.0855 4.7610
v  4.2567 0.3251 6.4417
v  4.2567 0.3251 4.9367
v  -4.2179 0.3251 4.9367
v  -4.2179 0.3251 6.4417
v  4.2567 11.3994 4.1081
v  4.2567 11.3994 0.1374
v  4.4963 11.6390 4.7610
v  4.4963 11.6390 4.2838
v  4.2567 11.3994 6.4417
v  4.2567 11.3994 4.9367
v  -4.2179 11.3994 4.1081
v  -4.2179 11.3994 0.1374
v  -4.4575 11.6390 4.7610
v  -4.4575 11.6390 4.2838
v  -4.2179 11.3994 6.4417
v  -4.2179 11.3994 4.9367
v  4.6463 8.3359 1.4970
v  4.6463 8.8013 1.2963
v  4.6463 8.8013 3.0324
v  4.6463 8.3359 2.8317
v  4.6463 9.2668 1.2963
v  4.6463 9.2668 3.0324
v  4.6463 9.7323 1.4970
v  4.6463 9.7323 2.8317
v  4.3346 8.3359 2.8317
v  4.3346 8.3359 1.4970
v  4.3346 8.8013 3.0324
v  4.3346 9.2668 3.0324
v  4.3346 9.7323 2.8317
v  4.3346 9.7323 1.4970
v  4.3346 9.2668 1.2963
v  4.3346 8.8013 1.2963
v  4.6463 6.4621 1.4970
v  4.6463 6.9275 1.2963
v  4.6463 6.9275 3.0324
v  4.6463 6.4621 2.8317
v  4.6463 7.3930 1.2963
v  4.6463 7.3930 3.0324
v  4.6463 7.8584 1.4970
v  4.6463 7.8584 2.8317
v  4.3346 6.4621 2.8317
v  4.3346 6.4621 1.4970
v  4.3346 6.9275 3.0324
v  4.3346 7.3930 3.0324
v  4.3346 7.8584 2.8317
v  4.3346 7.8584 1.4970
v  4.3346 7.3930 1.2963
v  4.3346 6.9275 1.2963
v  4.6463 3.6885 1.4970
v  4.6463 4.1540 1.2963
v  4.6463 4.1540 3.0324
v  4.6463 3.6885 2.8317
v  4.6463 4.6194 1.2963
v  4.6463 4.6194 3.0324
v  4.6463 5.0849 1.4970
v  4.6463 5.0849 2.8317
v  4.3346 3.6885 2.8317
v  4.3346 3.6885 1.4970
v  4.3346 4.1540 3.0324
v  4.3346 4.6194 3.0324
v  4.3346 5.0849 2.8317
v  4.3346 5.0849 1.4970
v  4.3346 4.6194 1.2963
v  4.3346 4.1540 1.2963
v  4.6463 1.8147 1.4970
v  4.6463 2.2801 1.2963
v  4.6463 2.2801 3.0324
v  4.6463 1.8147 2.8317
v  4.6463 2.7456 1.2963
v  4.6463 2.7456 3.0324
v  4.6463 3.2111 1.4970
v  4.6463 3.2111 2.8317
v  4.3346 1.8147 2.8317
v  4.3346 1.8147 1.4970
v  4.3346 2.2801 3.0324
v  4.3346 2.7456 3.0324
v  4.3346 3.2111 2.8317
v  4.3346 3.2111 1.4970
v  4.3346 2.7456 1.2963
v  4.3346 2.2801 1.2963
v  -4.6185 8.3359 2.8317
v  -4.6185 8.8013 3.0324
v  -4.6185 8.8013 1.2963
v  -4.6185 8.3359 1.4970
v  -4.6185 9.2668 3.0324
v  -4.6185 9.2668 1.2963
v  -4.6185 9.7323 2.8317
v  -4.6185 9.7323 1.4970
v  -4.3067 8.3359 1.4970
v  -4.3067 8.3359 2.8317
v  -4.3067 8.8013 1.2963
v  -4.3067 9.2668 1.2963
v  -4.3067 9.7323 1.4970
v  -4.3067 9.7323 2.8317
v  -4.3067 9.2668 3.0324
v  -4.3067 8.8013 3.0324
v  -4.6185 6.4621 2.8317
v  -4.6185 6.9275 3.0324
v  -4.6185 6.9275 1.2963
v  -4.6185 6.4621 1.4970
v  -4.6185 7.3930 3.0324
v  -4.6185 7.3930 1.2963
v  -4.6185 7.8584 2.8317
v  -4.6185 7.8584 1.4970
v  -4.3067 6.4621 1.4970
v  -4.3067 6.4621 2.8317
v  -4.3067 6.9275 1.2963
v  -4.3067 7.3930 1.2963
v  -4.3067 7.8584 1.4970
v  -4.3067 7.8584 2.8317
v  -4.3067 7.3930 3.0324
v  -4.3067 6.9275 3.0324
v  -4.6185 3.6885 2.8317
v  -4.6185 4.1540 3.0324
v  -4.6185 4.1540 1.2963
v  -4.6185 3.6885 1.4970
v  -4.6185 4.6194 3.0324
v  -4.6185 4.6194 1.2963
v  -4.6185 5.0849 2.8317
v  -4.6185 5.0849 1.4970
v  -4.3067 3.6885 1.4970
v  -4.3067 3.6885 2.8317
v  -4.3067 4.1540 1.2963
v  -4.3067 4.6194 1.2963
v  -4.3067 5.0849 1.4970
v  -4.3067 5.0849 2.8317
v  -4.3067 4.6194 3.0324
v  -4.3067 4.1540 3.0324
v  -4.6185 1.8147 2.8317
v  -4.6185 2.2801 3.0324
v  -4.6185 2.2801 1.2963
v  -4.6185 1.8147 1.4970
v  -4.6185 2.7456 3.0324
v  -4.6185 2.7456 1.2963
v  -4.6185 3.2111 2.8317
v  -4.6185 3.2111 1.4970
v  -4.3067 1.8147 1.4970
v  -4.3067 1.8147 2.8317
v  -4.3067 2.2801 1.2963
v  -4.3067 2.7456 1.2963
v  -4.3067 3.2111 1.4970
v  -4.3067 3.2111 2.8317
v  -4.3067 2.7456 3.0324
v  -4.3067 2.2801 3.0324
# 224 vertices

vn 0.0000 0.0000 -1.0000
vn -0.0000 -0.0000 1.0000
vn 0.0000 -0.0000 1.0000
vn -0.1602 -0.9871 -0.0000
vn 0.1602 -0.9871 -0.0000
vn 0.9871 -0.1602 0.0000
vn 0.9871 0.1602 -0.0000
vn 0.9871 -0.1602 -0.0000
vn 0.9871 0.1602 0.0000
vn 0.1602 0.9871 0.0000
vn -0.1602 0.9871 0.0000
vn -0.9871 0.1602 -0.0000
vn -0.9871 -0.1602 0.0000
vn -0.9871 0.1602 0.0000
vn -0.9871 -0.1602 -0.0000
vn -0.0543 -0.5547 -0.8302
vn 0.0543 -0.5547 -0.8302
vn 0.1098 -0.5142 -0.8506
vn -0.1098 -0.5142 -0.8506
vn 0.5547 -0.0543 -0.8302
vn 0.5547 0.0543 -0.8302
vn 0.5142 0.1098 -0.8506
vn 0.5142 -0.1098 -0.8506
vn 0.0543 0.5547 -0.8302
vn -0.0543 0.5547 -0.8302
vn -0.1098 0.5142 -0.8506
vn 0.1098 0.5142 -0.8506
vn -0.5547 0.0543 -0.8302
vn -0.5547 -0.0543 -0.8302
vn -0.5142 -0.1098 -0.8506
vn -0.5142 0.1098 -0.8506
vn 0.0543 -0.5547 0.8302
vn -0.0543 -0.5547 0.8302
vn -0.1098 -0.5142 0.8506
vn 0.1098 -0.5142 0.8506
vn -0.5547 -0.0543 0.8302
vn -0.5548 0.0543 0.8302
vn -0.5142 0.1098 0.8506
vn -0.5142 -0.1098 0.8506
vn -0.0543 0.5548 0.8302
vn 0.0543 0.5548 0.8302
vn 0.1098 0.5142 0.8506
vn -0.1098 0.5142 0.8506
vn 0.5547 0.0543 0.8302
vn 0.5547 -0.0543 0.8302
vn 0.5142 -0.1098 0.8506
vn 0.5142 0.1098 0.8506
vn 0.3162 -0.9487 -0.0000
vn 0.3162 -0.9487 0.0000
vn -0.3162 -0.9487 -0.0000
vn -0.3162 -0.9487 0.0000
vn 0.9487 0.3162 -0.0000
vn 0.9487 0.3162 0.0000
vn -0.3162 0.9487 0.0000
vn -0.3162 0.9487 -0.0000
vn -0.3256 -0.3256 -0.8877
vn 0.3256 -0.3256 -0.8877
vn 0.3256 0.3256 -0.8877
vn -0.3256 0.3256 -0.8877
vn 0.3256 -0.3256 0.8877
vn -0.3256 -0.3256 0.8877
vn -0.3256 0.3256 0.8877
vn 0.3256 0.3256 0.8877
vn 0.9487 -0.3162 0.0000
vn -0.9487 -0.3162 0.0000
vn 0.9487 -0.3162 -0.0000
vn -0.9487 -0.3162 -0.0000
vn 0.3162 0.9487 -0.0000
vn 0.3162 0.9487 0.0000
vn -0.9487 0.3162 -0.0000
vn -0.9487 0.3162 0.0000
vn -0.6934 -0.1125 -0.7117
vn -0.6934 0.1125 -0.7117
vn -0.1125 0.6934 -0.7117
vn 0.1125 0.6934 -0.7117
vn 0.6934 0.1125 -0.7117
vn 0.6934 -0.1125 -0.7117
vn 0.1125 -0.6934 -0.7117
vn -0.1125 -0.6934 -0.7117
vn -0.1125 -0.6934 0.7117
vn 0.1125 -0.6934 0.7117
vn 0.6934 -0.1125 0.7117
vn 0.6934 0.1125 0.7117
vn 0.1125 0.6934 0.7117
vn -0.1125 0.6934 0.7117
vn -0.6934 0.1125 0.7117
vn -0.6934 -0.1125 0.7117
vn -0.4714 -0.4714 -0.7454
vn 0.4714 -0.4714 -0.7454
vn -0.4714 0.4714 -0.7454
vn 0.4714 0.4714 -0.7454
vn -0.4714 -0.4714 0.7454
vn 0.4714 -0.4714 0.7454
vn -0.4714 0.4714 0.7454
vn 0.4714 0.4714 0.7454
vn 1.0000 0.0000 0.0000
vn 1.0000 -0.0000 0.0000
vn -0.0000 -1.0000 0.0000
vn 0.0000 -1.0000 0.0000
vn -0.0000 -0.3960 0.9182
vn -0.0000 -0.2022 0.9793
vn 0.0000 -0.3960 0.9182
vn -0.0000 0.2022 0.9793
vn 0.0000 0.3960 0.9182
vn -0.0000 0.3960 0.9182
vn -0.0000 1.0000 0.0000
vn 0.0000 1.0000 0.0000
vn 0.0000 0.3960 -0.9182
vn 0.0000 0.2022 -0.9793
vn 0.0000 -0.2022 -0.9793
vn 0.0000 -0.3960 -0.9182
vn 0.0000 1.0000 -0.0000
vn 0.0000 -1.0000 -0.0000
vn -1.0000 0.0000 -0.0000
vn -1.0000 -0.0000 -0.0000
# 115 vertex normals

vt 0.9840 0.0351 0.0000
vt 0.9840 0.9649 0.0000
vt 0.9766 0.9820 0.0000
vt 0.9544 0.9877 0.0000
vt 0.0456 0.9877 0.0000
vt 0.0234 0.9820 0.0000
vt 0.0160 0.9649 0.0000
vt 0.0456 0.0123 0.0000
vt 0.0160 0.0351 0.0000
vt 0.0234 0.0180 0.0000
vt 0.9766 0.0180 0.0000
vt 0.9544 0.0123 0.0000
vt 0.0430 0.0108 0.0000
vt 0.9570 0.0108 0.0000
vt 0.9570 0.3333 0.0000
vt 0.0430 0.3333 0.0000
vt 0.0408 0.3333 0.0000
vt 0.9592 0.3333 0.0000
vt 0.9592 0.6667 0.0000
vt 0.0408 0.6667 0.0000
vt 0.0430 0.6667 0.0000
vt 0.9570 0.6667 0.0000
vt 0.9570 0.9808 0.0000
vt 0.0430 0.9808 0.0000
vt 0.0331 0.0108 0.0000
vt 0.9669 0.0108 0.0000
vt 0.9669 0.3333 0.0000
vt 0.0331 0.3333 0.0000
vt 0.0318 0.3333 0.0000
vt 0.9682 0.3333 0.0000
vt 0.9682 0.6667 0.0000
vt 0.0318 0.6667 0.0000
vt 0.0331 0.6667 0.0000
vt 0.9669 0.6667 0.0000
vt 0.9669 0.9808 0.0000
vt 0.0331 0.9808 0.0000
vt 0.0142 0.3333 0.0000
vt -0.0047 0.3333 0.0000
vt -0.0047 0.0108 0.0000
vt 0.0142 0.0108 0.0000
vt 0.9858 0.0108 0.0000
vt 1.0047 0.0108 0.0000
vt 1.0047 0.3333 0.0000
vt 0.9858 0.3333 0.0000
vt -0.1757 0.6667 0.0000
vt -0.3831 0.6667 0.0000
vt -0.3831 0.3333 0.0000
vt -0.1757 0.3333 0.0000
vt 1.1757 0.3333 0.0000
vt 1.3831 0.3333 0.0000
vt 1.3831 0.6667 0.0000
vt 1.1757 0.6667 0.0000
vt -0.0042 0.9808 0.0000
vt -0.0416 0.9808 0.0000
vt -0.0416 0.6667 0.0000
vt -0.0042 0.6667 0.0000
vt 1.0042 0.6667 0.0000
vt 1.0416 0.6667 0.0000
vt 1.0416 0.9808 0.0000
vt 1.0042 0.9808 0.0000
vt 0.0197 0.3333 0.0000
vt -0.0036 0.3333 0.0000
vt -0.0036 0.0108 0.0000
vt 0.0197 0.0108 0.0000
vt -0.1288 0.6667 0.0000
vt -0.2983 0.6667 0.0000
vt -0.2983 0.3333 0.0000
vt -0.1288 0.3333 0.0000
vt 0.0055 0.9808 0.0000
vt -0.0320 0.9808 0.0000
vt -0.0320 0.6667 0.0000
vt 0.0055 0.6667 0.0000
vt 0.0363 0.3333 0.0000
vt 0.0381 0.3333 0.0000
vt 0.9637 0.6667 0.0000
vt 0.9619 0.6667 0.0000
vt 0.9649 -0.0222 0.0000
vt 0.0351 -0.0222 0.0000
vt 0.9544 -0.0765 0.0000
vt 0.0456 -0.0765 0.0000
vt 0.0456 0.9747 0.0000
vt 0.9544 0.9747 0.0000
vt 0.0351 0.9438 0.0000
vt 0.9649 0.9438 0.0000
vt 1.0114 0.0317 0.0000
vt 1.0008 0.0069 0.0000
vt 0.0420 -0.0153 0.0000
vt 0.0097 -0.0072 0.0000
vt 0.9580 1.0153 0.0000
vt 0.9903 1.0072 0.0000
vt -0.0114 0.9683 0.0000
vt -0.0008 0.9931 0.0000
vt 0.0421 -0.0148 0.0000
vt 0.0097 -0.0068 0.0000
vt 1.0106 0.0318 0.0000
vt 1.0002 0.0069 0.0000
vt -0.0106 0.9682 0.0000
vt -0.0002 0.9931 0.0000
vt 0.9579 1.0148 0.0000
vt 0.9903 1.0068 0.0000
vt 0.9903 -0.0072 0.0000
vt 0.9580 -0.0153 0.0000
vt -0.0008 0.0069 0.0000
vt -0.0114 0.0317 0.0000
vt 1.0008 0.9931 0.0000
vt 1.0114 0.9683 0.0000
vt 0.0097 1.0072 0.0000
vt 0.0420 1.0153 0.0000
vt -0.0002 0.0069 0.0000
vt -0.0106 0.0318 0.0000
vt 0.9903 -0.0068 0.0000
vt 0.9579 -0.0148 0.0000
vt 0.0097 1.0068 0.0000
vt 0.0421 1.0148 0.0000
vt 1.0002 0.9931 0.0000
vt 1.0106 0.9682 0.0000
vt 0.1160 0.0005 -0.3057
vt 0.0005 0.3335 -0.3057
vt 0.9995 0.3335 -0.3057
vt 0.8840 0.0005 -0.3057
vt 0.0005 0.6665 -0.3057
vt 0.9995 0.6665 -0.3057
vt 0.1160 0.9995 -0.3057
vt 0.8840 0.9995 -0.3057
vt 0.8840 0.0005 0.9995
vt 0.1160 0.0005 0.9995
vt 0.9995 0.3335 0.9995
vt 0.9995 0.6665 0.9995
vt 0.8840 0.9995 0.9995
vt 0.1160 0.9995 0.9995
vt 0.0005 0.6665 0.9995
vt 0.0005 0.3335 0.9995
# 132 texture coords

g 702825
usemtl 01___Default
s 1
f 1/1/1 2/2/1 3/3/1 4/4/1 
f 4/4/1 5/5/1 6/6/1 7/7/1 
f 1/1/1 4/4/1 7/7/1 8/8/1 
f 7/7/1 9/9/1 10/10/1 8/8/1 
f 11/11/1 1/1/1 8/8/1 12/12/1 
usemtl 02___Default
f 13/8/2 14/12/3 15/11/3 16/1/2 
f 16/1/2 17/2/3 18/3/3 19/4/2 
f 13/8/2 16/1/2 19/4/2 20/7/3 
f 19/4/2 21/5/3 22/6/3 20/7/3 
f 23/10/3 13/8/2 20/7/3 24/9/3 
usemtl 01___Default
f 25/13/4 26/14/5 27/15/5 28/16/4 
f 29/17/4 30/18/5 31/19/5 32/20/4 
f 33/21/4 34/22/5 35/23/5 36/24/4 
s 2
f 37/25/6 38/26/7 39/27/7 40/28/6 
f 41/29/8 42/30/9 43/31/9 44/32/8 
f 45/33/8 46/34/9 47/35/9 48/36/8 
s 1
f 49/13/10 50/14/11 51/15/11 52/16/10 
f 53/17/10 54/18/11 55/19/11 56/20/10 
f 57/21/10 58/22/11 59/23/11 60/24/10 
s 2
f 61/25/12 62/26/13 63/27/13 64/28/12 
f 65/29/14 66/30/15 67/31/15 68/32/14 
f 69/33/14 70/34/15 71/35/15 72/36/14 
s 4
f 28/16/16 27/15/17 30/18/18 29/17/19 
f 40/28/20 39/27/21 42/30/22 41/29/23 
f 52/16/24 51/15/25 54/18/26 53/17/27 
f 64/28/28 63/27/29 66/30/30 65/29/31 
f 34/22/32 33/21/33 32/20/34 31/19/35 
f 70/34/36 69/33/37 68/32/38 67/31/39 
f 58/22/40 57/21/41 56/20/42 55/19/43 
f 46/34/44 45/33/45 44/32/46 43/31/47 
s 1
f 73/37/48 27/38/5 26/39/5 74/40/49 
f 75/41/50 25/42/4 28/43/4 76/44/51 
f 77/45/48 31/46/5 30/47/5 78/48/48 
f 79/49/50 29/50/4 32/51/4 80/52/50 
f 81/53/48 35/54/5 34/55/5 82/56/48 
f 83/57/50 33/58/4 36/59/4 84/60/50 
s 2
f 85/61/52 39/62/7 38/63/7 86/64/52 
f 87/65/53 43/66/9 42/67/9 88/68/53 
f 89/69/53 47/70/9 46/71/9 90/72/53 
s 1
f 91/37/54 51/38/11 50/39/11 92/40/55 
f 93/45/54 55/46/11 54/47/11 94/48/54 
f 95/53/54 59/54/11 58/55/11 96/56/54 
s 4
f 79/73/56 66/29/30 63/28/29 76/74/56 
f 78/73/57 30/17/18 27/16/17 73/74/57 
f 88/73/58 42/29/22 39/28/21 85/74/58 
f 94/73/59 54/17/26 51/16/25 91/74/59 
f 77/75/60 44/31/46 45/34/45 82/76/60 
f 80/75/61 32/19/34 33/22/33 83/76/61 
f 93/75/62 68/31/38 69/34/37 96/76/62 
f 87/75/63 56/19/42 57/22/41 90/76/63 
s 2
f 40/28/6 73/37/64 74/40/64 37/25/6 
f 62/26/13 75/41/65 76/44/65 63/27/13 
f 44/32/8 77/45/66 78/48/66 41/29/8 
f 66/30/15 79/49/67 80/52/67 67/31/15 
f 48/36/8 81/53/66 82/56/66 45/33/8 
f 70/34/15 83/57/67 84/60/67 71/35/15 
s 1
f 52/16/10 85/61/68 86/64/69 49/13/10 
f 56/20/10 87/65/69 88/68/69 53/17/10 
f 60/24/10 89/69/69 90/72/69 57/21/10 
s 2
f 64/28/12 91/37/70 92/40/70 61/25/12 
f 68/32/14 93/45/71 94/48/71 65/29/14 
f 72/36/14 95/53/71 96/56/71 69/33/14 
s 4
f 29/17/19 79/73/56 76/74/56 28/16/16 
f 41/29/23 78/73/57 73/74/57 40/28/20 
f 53/17/27 88/73/58 85/74/58 52/16/24 
f 65/29/31 94/73/59 91/74/59 64/28/28 
f 31/19/35 77/75/60 82/76/60 34/22/32 
f 67/31/39 80/75/61 83/76/61 70/34/36 
f 55/19/43 93/75/62 96/76/62 58/22/40 
f 43/31/47 87/75/63 90/76/63 46/34/44 
f 1/77/72 62/26/72 61/25/73 2/78/73 
f 4/79/74 50/14/74 49/13/75 5/80/75 
f 7/77/76 38/26/76 37/25/77 9/78/77 
f 8/79/78 26/14/78 25/13/79 12/80/79 
f 13/81/80 36/24/80 35/23/81 14/82/81 
f 16/83/82 48/36/82 47/35/83 17/84/83 
f 19/81/84 60/24/84 59/23/85 21/82/85 
f 20/83/86 72/36/86 71/35/87 24/84/87 
f 62/85/72 1/1/72 11/11/88 75/86/88 
f 26/87/78 8/8/78 10/10/89 74/88/89 
f 50/89/74 4/4/74 3/3/90 92/90/90 
f 38/91/76 7/7/76 6/6/91 86/92/91 
f 36/93/80 13/8/80 23/10/92 84/94/92 
f 48/95/82 16/1/82 15/11/93 81/96/93 
f 72/97/86 20/7/86 22/6/94 95/98/94 
f 60/99/84 19/4/84 18/3/95 89/100/95 
f 75/101/88 11/11/88 12/12/79 25/102/79 
f 74/103/89 10/10/89 9/9/77 37/104/77 
f 92/105/90 3/3/90 2/2/73 61/106/73 
f 86/107/91 6/6/91 5/5/75 49/108/75 
f 84/109/92 23/10/92 24/9/87 71/110/87 
f 81/111/93 15/11/93 14/12/81 35/112/81 
f 95/113/94 22/6/94 21/5/85 59/114/85 
f 89/115/95 18/3/95 17/2/83 47/116/83 
usemtl 03___Default
s 2
f 97/117/96 98/118/96 99/119/97 100/120/97 
f 98/118/96 101/121/97 102/122/96 99/119/97 
f 101/121/97 103/123/97 104/124/96 102/122/96 
s 8
f 97/117/98 100/120/99 105/125/98 106/126/98 
s 16
f 100/120/100 99/119/101 107/127/101 105/125/102 
f 99/119/101 102/122/103 108/128/103 107/127/101 
f 102/122/103 104/124/104 109/129/105 108/128/103 
s 32
f 104/124/106 103/123/106 110/130/106 109/129/107 
s 64
f 103/123/108 101/121/109 111/131/109 110/130/108 
f 101/121/109 98/118/110 112/132/110 111/131/109 
f 98/118/110 97/117/111 106/126/111 112/132/110 
s 2
f 113/117/96 114/118/96 115/119/97 116/120/97 
f 114/118/96 117/121/97 118/122/96 115/119/97 
f 117/121/97 119/123/97 120/124/96 118/122/96 
s 8
f 113/117/98 116/120/99 121/125/98 122/126/98 
s 16
f 116/120/100 115/119/101 123/127/101 121/125/102 
f 115/119/101 118/122/103 124/128/103 123/127/101 
f 118/122/103 120/124/104 125/129/105 124/128/103 
s 32
f 120/124/112 119/123/112 126/130/112 125/129/112 
s 64
f 119/123/108 117/121/109 127/131/109 126/130/108 
f 117/121/109 114/118/110 128/132/110 127/131/109 
f 114/118/110 113/117/111 122/126/111 128/132/110 
s 2
f 129/117/96 130/118/96 131/119/97 132/120/97 
f 130/118/96 133/121/97 134/122/96 131/119/97 
f 133/121/97 135/123/97 136/124/96 134/122/96 
s 8
f 129/117/98 132/120/99 137/125/98 138/126/98 
s 16
f 132/120/100 131/119/101 139/127/101 137/125/102 
f 131/119/101 134/122/103 140/128/103 139/127/101 
f 134/122/103 136/124/104 141/129/105 140/128/103 
s 32
f 136/124/112 135/123/112 142/130/112 141/129/112 
s 64
f 135/123/108 133/121/109 143/131/109 142/130/108 
f 133/121/109 130/118/110 144/132/110 143/131/109 
f 130/118/110 129/117/111 138/126/111 144/132/110 
s 2
f 145/117/96 146/118/96 147/119/97 148/120/97 
f 146/118/96 149/121/97 150/122/96 147/119/97 
f 149/121/97 151/123/97 152/124/96 150/122/96 
s 8
f 145/117/113 148/120/113 153/125/113 154/126/113 
s 16
f 148/120/100 147/119/101 155/127/101 153/125/102 
f 147/119/101 150/122/103 156/128/103 155/127/101 
f 150/122/103 152/124/104 157/129/105 156/128/103 
s 32
f 152/124/112 151/123/112 158/130/112 157/129/112 
s 64
f 151/123/108 149/121/109 159/131/109 158/130/108 
f 149/121/109 146/118/110 160/132/110 159/131/109 
f 146/118/110 145/117/111 154/126/111 160/132/110 
s 2
f 161/117/114 162/118/114 163/119/115 164/120/115 
f 162/118/114 165/121/115 166/122/114 163/119/115 
f 165/121/115 167/123/115 168/124/114 166/122/114 
s 8
f 161/117/113 164/120/113 169/125/113 170/126/113 
s 16
f 164/120/111 163/119/110 171/127/110 169/125/111 
f 163/119/110 166/122/109 172/128/109 171/127/110 
f 166/122/109 168/124/108 173/129/108 172/128/109 
s 32
f 168/124/112 167/123/112 174/130/112 173/129/112 
s 64
f 167/123/105 165/121/103 175/131/103 174/130/104 
f 165/121/103 162/118/101 176/132/101 175/131/103 
f 162/118/101 161/117/100 170/126/100 176/132/101 
s 2
f 177/117/114 178/118/114 179/119/115 180/120/115 
f 178/118/114 181/121/115 182/122/114 179/119/115 
f 181/121/115 183/123/115 184/124/114 182/122/114 
s 8
f 177/117/98 180/120/99 185/125/98 186/126/98 
s 16
f 180/120/111 179/119/110 187/127/110 185/125/111 
f 179/119/110 182/122/109 188/128/109 187/127/110 
f 182/122/109 184/124/108 189/129/108 188/128/109 
s 32
f 184/124/107 183/123/107 190/130/107 189/129/107 
s 64
f 183/123/105 181/121/103 191/131/103 190/130/105 
f 181/121/103 178/118/101 192/132/101 191/131/103 
f 178/118/101 177/117/100 186/126/100 192/132/101 
s 2
f 193/117/114 194/118/114 195/119/115 196/120/115 
f 194/118/114 197/121/115 198/122/114 195/119/115 
f 197/121/115 199/123/115 200/124/114 198/122/114 
s 8
f 193/117/113 196/120/113 201/125/113 202/126/113 
s 16
f 196/120/111 195/119/110 203/127/110 201/125/111 
f 195/119/110 198/122/109 204/128/109 203/127/110 
f 198/122/109 200/124/108 205/129/108 204/128/109 
s 32
f 200/124/106 199/123/106 206/130/106 205/129/107 
s 64
f 199/123/105 197/121/103 207/131/103 206/130/105 
f 197/121/103 194/118/101 208/132/101 207/131/103 
f 194/118/101 193/117/100 202/126/100 208/132/101 
s 2
f 209/117/114 210/118/114 211/119/115 212/120/115 
f 210/118/114 213/121/115 214/122/114 211/119/115 
f 213/121/115 215/123/115 216/124/114 214/122/114 
s 8
f 209/117/98 212/120/98 217/125/98 218/126/99 
s 16
f 212/120/111 211/119/110 219/127/110 217/125/111 
f 211/119/110 214/122/109 220/128/109 219/127/110 
f 214/122/109 216/124/108 221/129/108 220/128/109 
s 32
f 216/124/112 215/123/112 222/130/112 221/129/112 
s 64
f 215/123/105 213/121/103 223/131/103 222/130/105 
f 213/121/103 210/118/101 224/132/101 223/131/103 
f 210/118/101 209/117/102 218/126/100 224/132/101 
# 182 polygons

