# 3ds Max Wavefront OBJ Exporter v0.97b - (c)2007 guruware
# File Created: 09.05.2018 10:47:23

mtllib 906205.mtl

#
# object 906205
#

v  -7.9633 8.4914 -3.5084
v  -7.9633 8.4914 -0.0000
v  7.7035 8.4914 -0.0000
v  7.7035 8.4914 -3.5084
v  -10.7495 0.0000 -8.6286
v  -10.7495 1.2365 -8.5970
v  10.7495 1.2365 -8.5970
v  10.7495 0.0000 -8.6286
v  -10.7495 2.5067 -8.4540
v  10.7495 2.5067 -8.4540
v  -10.7259 2.5715 -8.4291
v  -7.9822 8.4653 -3.6016
v  7.7224 8.4653 -3.6016
v  10.7259 2.5715 -8.4291
v  10.7995 0.0000 -8.5784
v  10.7995 1.2365 -8.5468
v  10.7995 1.2365 -0.0000
v  10.7995 0.0000 -0.0000
v  10.7995 2.5067 -8.4034
v  10.7995 2.5065 -0.0000
v  10.7759 2.5714 -8.3784
v  7.7885 8.4544 -3.5406
v  7.7885 8.4544 -0.0000
v  10.7720 2.5756 -0.0000
v  -10.7995 0.0000 -0.0000
v  -10.7995 1.2365 -0.0000
v  -10.7995 1.2365 -8.5468
v  -10.7995 0.0000 -8.5784
v  -10.7995 2.5065 -0.0000
v  -10.7995 2.5067 -8.4034
v  -10.7720 2.5756 -0.0000
v  -8.0483 8.4544 -0.0000
v  -8.0483 8.4544 -3.5406
v  -10.7759 2.5714 -8.3784
v  -7.9633 8.4914 3.5084
v  7.7035 8.4914 3.5084
v  -10.7495 0.0000 8.6286
v  10.7495 0.0000 8.6286
v  10.7495 1.2365 8.5970
v  -10.7495 1.2365 8.5970
v  10.7495 2.5067 8.4540
v  -10.7495 2.5067 8.4540
v  -10.7259 2.5715 8.4291
v  10.7259 2.5715 8.4291
v  7.7224 8.4653 3.6016
v  -7.9822 8.4653 3.6016
v  10.7995 0.0000 8.5784
v  10.7995 1.2365 8.5468
v  10.7995 2.5067 8.4034
v  10.7759 2.5714 8.3784
v  7.7885 8.4544 3.5406
v  -10.7995 0.0000 8.5784
v  -10.7995 1.2365 8.5468
v  -10.7995 2.5067 8.4034
v  -10.7759 2.5714 8.3784
v  -8.0483 8.4544 3.5406
v  7.1459 8.4898 -3.5082
v  6.2281 8.4898 -3.5082
v  6.2281 9.3315 -2.5027
v  7.1459 9.3315 -2.5027
v  7.1459 9.3465 -2.4618
v  6.2281 9.3465 -2.4618
v  6.2281 9.3465 2.4769
v  7.1459 9.3465 2.4769
v  7.1459 9.3314 2.5177
v  6.2281 9.3314 2.5177
v  6.2281 8.4904 3.5082
v  7.1459 8.4904 3.5082
v  6.2281 9.2437 -2.4722
v  6.2281 8.4909 -3.3608
v  7.1459 8.4909 -3.3608
v  7.1459 9.2437 -2.4722
v  6.2281 9.2587 2.4465
v  6.2281 9.2587 -2.4314
v  7.1459 9.2587 -2.4314
v  7.1459 9.2587 2.4465
v  6.2281 8.4900 3.3889
v  6.2281 9.2438 2.4874
v  7.1459 9.2438 2.4874
v  7.1459 8.4900 3.3889
v  7.1689 9.3069 -2.4955
v  7.1689 9.2665 -2.4816
v  7.1689 8.4907 -3.3838
v  7.1689 8.4899 -3.4852
v  6.2051 8.4899 -3.4852
v  6.2051 8.4907 -3.3838
v  6.2051 9.2665 -2.4816
v  6.2051 9.3069 -2.4955
v  7.1689 9.3226 2.4672
v  7.1689 9.2825 2.4534
v  7.1689 9.2825 -2.4382
v  7.1689 9.3226 -2.4521
v  6.2051 9.3226 -2.4521
v  6.2051 9.2825 -2.4382
v  6.2051 9.2825 2.4534
v  6.2051 9.3226 2.4672
v  7.1689 8.4904 3.4852
v  7.1689 8.4901 3.4119
v  7.1689 9.2666 2.4967
v  7.1689 9.3066 2.5106
v  6.2051 9.3066 2.5106
v  6.2051 9.2666 2.4967
v  6.2051 8.4901 3.4119
v  6.2051 8.4904 3.4852
v  -6.4174 8.4898 -3.5082
v  -7.3352 8.4898 -3.5082
v  -7.3352 9.3315 -2.5027
v  -6.4174 9.3315 -2.5027
v  -6.4174 9.3465 -2.4618
v  -7.3352 9.3465 -2.4618
v  -7.3352 9.3465 2.4769
v  -6.4174 9.3465 2.4769
v  -6.4174 9.3314 2.5177
v  -7.3352 9.3314 2.5177
v  -7.3352 8.4904 3.5082
v  -6.4174 8.4904 3.5082
v  -7.3352 9.2437 -2.4722
v  -7.3352 8.4909 -3.3608
v  -6.4174 8.4909 -3.3608
v  -6.4174 9.2437 -2.4722
v  -7.3352 9.2587 2.4465
v  -7.3352 9.2587 -2.4314
v  -6.4174 9.2587 -2.4314
v  -6.4174 9.2587 2.4465
v  -7.3352 8.4900 3.3889
v  -7.3352 9.2438 2.4874
v  -6.4174 9.2438 2.4874
v  -6.4174 8.4900 3.3889
v  -6.3944 9.3069 -2.4955
v  -6.3944 9.2665 -2.4816
v  -6.3944 8.4907 -3.3838
v  -6.3944 8.4899 -3.4852
v  -7.3582 8.4899 -3.4852
v  -7.3582 8.4907 -3.3838
v  -7.3582 9.2665 -2.4816
v  -7.3582 9.3069 -2.4955
v  -6.3944 9.3226 2.4672
v  -6.3944 9.2825 2.4534
v  -6.3944 9.2825 -2.4382
v  -6.3944 9.3226 -2.4521
v  -7.3582 9.3226 -2.4521
v  -7.3582 9.2825 -2.4382
v  -7.3582 9.2825 2.4534
v  -7.3582 9.3226 2.4672
v  -6.3944 8.4904 3.4852
v  -6.3944 8.4901 3.4119
v  -6.3944 9.2666 2.4967
v  -6.3944 9.3066 2.5106
v  -7.3582 9.3066 2.5106
v  -7.3582 9.2666 2.4967
v  -7.3582 8.4901 3.4119
v  -7.3582 8.4904 3.4852
# 152 vertices

vn -0.1784 0.9779 -0.1091
vn -0.2039 0.9790 -0.0000
vn 0.2039 0.9790 -0.0000
vn 0.1784 0.9779 -0.1091
vn -0.0000 0.0255 -0.9997
vn -0.0000 0.0688 -0.9976
vn 0.0000 0.0255 -0.9997
vn 0.0000 0.2230 -0.9748
vn -0.0000 0.2230 -0.9748
vn -0.0000 0.4727 -0.8812
vn -0.0000 0.6337 -0.7736
vn 0.0000 0.4710 -0.8821
vn 0.9220 0.0099 -0.3871
vn 0.9203 0.0275 -0.3903
vn 1.0000 -0.0000 -0.0000
vn 1.0000 0.0000 -0.0000
vn 0.8975 0.2354 -0.3730
vn 0.9821 0.1882 -0.0000
vn 0.7884 0.5232 -0.3235
vn 0.6504 0.7409 -0.1673
vn 0.6859 0.7277 -0.0000
vn 0.9114 0.4115 -0.0000
vn -1.0000 0.0000 0.0000
vn -1.0000 0.0000 -0.0000
vn -0.9202 0.0275 -0.3904
vn -0.9220 0.0099 -0.3871
vn -0.9822 0.1881 0.0000
vn -0.8975 0.2352 -0.3730
vn -0.9186 0.3952 0.0000
vn -0.6989 0.7152 -0.0000
vn -0.6632 0.7290 -0.1695
vn -0.7921 0.5153 -0.3273
vn -0.3280 0.8757 -0.3542
vn 0.3226 0.8801 -0.3483
vn 0.7076 0.0477 -0.7050
vn 0.7083 0.0180 -0.7057
vn -0.7077 0.0478 -0.7049
vn -0.7083 0.0180 -0.7057
vn 0.6839 0.2739 -0.6762
vn -0.6839 0.2737 -0.6763
vn 0.5821 0.5750 -0.5749
vn -0.5857 0.5679 -0.5784
vn -0.1784 0.9779 0.1091
vn 0.1784 0.9779 0.1091
vn -0.0000 0.0255 0.9997
vn 0.0000 0.0255 0.9997
vn -0.0000 0.0688 0.9976
vn -0.0000 0.2230 0.9748
vn 0.0000 0.2230 0.9748
vn 0.0000 0.4727 0.8812
vn 0.0000 0.4710 0.8821
vn 0.0000 0.6337 0.7736
vn 0.9220 0.0099 0.3871
vn 0.9203 0.0275 0.3903
vn 0.8975 0.2354 0.3730
vn 0.7884 0.5232 0.3235
vn 0.6504 0.7409 0.1673
vn -0.9220 0.0099 0.3871
vn -0.9202 0.0275 0.3904
vn -0.8975 0.2352 0.3730
vn -0.7921 0.5153 0.3273
vn -0.6632 0.7290 0.1695
vn -0.3280 0.8757 0.3542
vn 0.3226 0.8801 0.3483
vn 0.7076 0.0477 0.7050
vn 0.7083 0.0180 0.7057
vn -0.7083 0.0180 0.7057
vn -0.7077 0.0478 0.7049
vn 0.6839 0.2739 0.6762
vn -0.6839 0.2737 0.6763
vn 0.5821 0.5750 0.5749
vn -0.5857 0.5679 0.5784
vn -0.0000 0.7668 -0.6419
vn 0.0000 0.7668 -0.6419
vn 0.0000 1.0000 -0.0000
vn 0.0000 0.7623 0.6472
vn -0.0000 0.7623 0.6472
vn 0.0000 -0.7630 0.6464
vn 0.0000 -1.0000 -0.0000
vn 0.0000 -0.7672 -0.6414
vn -0.0000 -0.7672 -0.6414
vn -1.0000 -0.0000 0.0000
vn -1.0000 -0.0000 -0.0000
vn 0.7450 0.6256 0.2314
vn 0.7444 0.6273 -0.2289
vn -0.7450 0.6257 0.2314
vn -0.7444 0.6273 -0.2289
vn 0.7316 -0.6401 -0.2347
vn 0.7317 -0.6393 0.2365
vn -0.7316 -0.6401 -0.2347
vn -0.7317 -0.6393 0.2364
vn 0.6378 0.5923 -0.4924
vn -0.0000 0.9390 -0.3439
vn -0.6378 0.5923 -0.4924
vn 0.7193 0.6947 -0.0000
vn 0.0000 0.9378 0.3472
vn -0.7193 0.6947 0.0000
vn 0.6409 0.5868 0.4949
vn -0.6408 0.5869 0.4949
vn 0.0000 -0.9380 0.3467
vn 0.6394 -0.5848 0.4992
vn -0.6394 -0.5848 0.4992
vn 0.0000 -0.9391 -0.3436
vn 0.7193 -0.6947 -0.0000
vn -0.7193 -0.6947 0.0000
vn 0.6402 -0.5876 -0.4949
vn -0.6402 -0.5876 -0.4949
vn 0.0000 1.0000 0.0000
vn 1.0000 -0.0000 0.0000
vn 0.7450 0.6257 0.2314
vn 0.7315 -0.6401 -0.2347
vn 0.7318 -0.6392 0.2364
vn -0.7315 -0.6401 -0.2347
vn 0.0000 0.9390 -0.3439
vn 0.6408 0.5869 0.4949
vn 0.6401 -0.5876 -0.4949
vn -0.6401 -0.5876 -0.4949
# 117 vertex normals

vt -0.3193 0.7433 0.8417
vt -0.3193 0.5000 0.8417
vt 1.3193 0.5000 0.8417
vt 1.3193 0.7433 0.8417
vt 1.7875 0.1583 1.4292
vt 1.7875 0.2578 1.4205
vt -0.7875 0.2578 1.4205
vt -0.7875 0.1583 1.4292
vt 1.7875 0.3601 1.4049
vt -0.7875 0.3601 1.4049
vt 0.2056 0.3325 1.4510
vt 0.3135 0.7536 2.2948
vt 0.9313 0.7536 2.2949
vt 1.0494 0.3325 1.4510
vt 1.4250 0.1583 1.7917
vt 1.4163 0.2578 1.7917
vt 0.5000 0.2578 1.7917
vt 0.5000 0.1583 1.7917
vt 1.4007 0.3601 1.7917
vt 0.5000 0.3600 1.7917
vt 1.2098 0.5690 1.5903
vt 0.7460 0.8387 1.3263
vt 0.5000 0.8387 1.3263
vt 0.5000 0.5692 1.5901
vt 0.5000 0.1583 -0.7917
vt 0.5000 0.2578 -0.7917
vt -0.4163 0.2578 -0.7917
vt -0.4250 0.1583 -0.7917
vt 0.5000 0.3600 -0.7917
vt -0.4007 0.3601 -0.7917
vt 0.5000 0.5692 -0.5901
vt 0.5000 0.8387 -0.3263
vt 0.2540 0.8387 -0.3263
vt -0.2098 0.5690 -0.5903
vt -0.3208 0.7511 0.8396
vt -0.3263 0.7460 0.8387
vt 1.3208 0.7511 0.8396
vt 1.3263 0.7460 0.8387
vt 1.3263 0.5000 0.8387
vt -0.3263 0.5000 0.8387
vt 1.4205 0.2578 1.7875
vt 1.4292 0.1583 1.7875
vt -0.4205 0.2578 -0.7875
vt -0.4292 0.1583 -0.7875
vt 1.4049 0.3601 1.7875
vt -0.4049 0.3601 -0.7875
vt 1.5903 1.2098 0.5690
vt 1.5857 1.2156 0.5690
vt -0.5857 1.2156 0.5690
vt -0.5903 1.2098 0.5690
vt -0.6058 1.2459 0.5761
vt 1.6058 1.2459 0.5761
vt 1.2082 0.5568 1.5834
vt 0.5000 0.5567 1.5834
vt 0.5000 0.5567 -0.5834
vt -0.2082 0.5568 -0.5834
vt 1.5992 1.2199 0.5761
vt 1.6038 1.2142 0.5761
vt -0.6038 1.2142 0.5760
vt -0.5992 1.2199 0.5760
vt 0.2665 0.3337 -0.5463
vt 1.0524 0.3337 -0.5463
vt 0.9424 0.7680 0.3094
vt 0.3670 0.7680 0.3094
vt 1.3397 0.2566 0.4660
vt 1.2633 0.2566 0.4660
vt 1.2633 0.3404 0.5328
vt 1.3397 0.3404 0.5328
vt 1.3397 0.3438 0.5340
vt 1.2633 0.3438 0.5340
vt 1.2633 0.6575 0.5340
vt 1.3397 0.6575 0.5340
vt 1.3397 0.6609 0.5328
vt 1.2633 0.6609 0.5328
vt 1.2633 0.7434 0.4661
vt 1.3397 0.7434 0.4661
vt -0.2633 0.3429 0.5258
vt -0.2633 0.2689 0.4661
vt -0.3397 0.2689 0.4661
vt -0.3397 0.3429 0.5258
vt -0.2633 0.6549 0.5270
vt -0.2633 0.3463 0.5270
vt -0.3397 0.3463 0.5270
vt -0.3397 0.6549 0.5270
vt -0.2633 0.7335 0.4661
vt -0.2633 0.6583 0.5258
vt -0.3397 0.6583 0.5258
vt -0.3397 0.7335 0.4661
vt 0.3410 0.5308 1.3417
vt 0.3422 0.5276 1.3417
vt 0.2670 0.4661 1.3417
vt 0.2585 0.4660 1.3417
vt 0.7415 0.4660 1.2613
vt 0.7330 0.4661 1.2613
vt 0.6578 0.5276 1.2613
vt 0.6590 0.5308 1.2613
vt 0.6566 0.5321 1.3417
vt 0.6555 0.5289 1.3417
vt 0.3458 0.5289 1.3417
vt 0.3446 0.5321 1.3417
vt 0.6554 0.5321 1.2613
vt 0.6542 0.5289 1.2613
vt 0.3445 0.5289 1.2613
vt 0.3434 0.5321 1.2613
vt 0.7415 0.4661 1.3417
vt 0.7354 0.4661 1.3417
vt 0.6591 0.5276 1.3417
vt 0.6603 0.5308 1.3417
vt 0.3397 0.5308 1.2613
vt 0.3409 0.5276 1.2613
vt 0.2646 0.4661 1.2613
vt 0.2585 0.4661 1.2613
vt 0.6575 0.5340 1.3397
vt 0.6609 0.5328 1.3397
vt 0.3438 0.5340 1.3397
vt 0.3404 0.5328 1.3397
vt 0.3391 0.5328 1.2633
vt 0.3425 0.5340 1.2633
vt 0.6562 0.5340 1.2633
vt 0.6596 0.5328 1.2633
vt 0.6583 0.5258 1.3397
vt 0.6549 0.5270 1.3397
vt 0.3463 0.5270 1.3397
vt 0.3429 0.5258 1.3397
vt 0.3451 0.5270 1.2633
vt 0.3417 0.5258 1.2633
vt 0.6571 0.5258 1.2633
vt 0.6537 0.5270 1.2633
vt 0.2588 0.4658 1.3413
vt 0.2566 0.4660 1.3397
vt 0.7436 0.4663 1.2629
vt 0.7436 0.4663 1.3401
vt 0.2587 0.4658 1.2617
vt 0.2566 0.4661 1.2633
vt 0.2691 0.4659 1.3401
vt 0.7333 0.4664 1.2617
vt 0.7311 0.4661 1.2633
vt 0.7356 0.4663 1.3413
vt 0.7335 0.4661 1.3397
vt 0.2668 0.4658 1.2629
vt 0.4063 0.2566 0.4660
vt 0.3298 0.2566 0.4660
vt 0.3298 0.3404 0.5328
vt 0.4063 0.3404 0.5328
vt 0.4063 0.3438 0.5340
vt 0.3298 0.3438 0.5340
vt 0.3298 0.6575 0.5340
vt 0.4063 0.6575 0.5340
vt 0.4063 0.6609 0.5328
vt 0.3298 0.6609 0.5328
vt 0.3298 0.7434 0.4661
vt 0.4063 0.7434 0.4661
vt 0.6702 0.3429 0.5258
vt 0.6702 0.2689 0.4661
vt 0.5937 0.2689 0.4661
vt 0.5937 0.3429 0.5258
vt 0.6702 0.6549 0.5270
vt 0.6702 0.3463 0.5270
vt 0.5937 0.3463 0.5270
vt 0.5937 0.6549 0.5270
vt 0.6702 0.7335 0.4661
vt 0.6702 0.6583 0.5258
vt 0.5937 0.6583 0.5258
vt 0.5937 0.7335 0.4661
vt 0.3410 0.5308 0.4082
vt 0.3422 0.5276 0.4082
vt 0.2670 0.4661 0.4082
vt 0.2585 0.4660 0.4082
vt 0.7415 0.4660 0.3279
vt 0.7330 0.4661 0.3279
vt 0.6578 0.5276 0.3279
vt 0.6590 0.5308 0.3279
vt 0.6567 0.5321 0.4082
vt 0.6555 0.5289 0.4082
vt 0.3458 0.5289 0.4082
vt 0.3446 0.5321 0.4082
vt 0.6554 0.5321 0.3279
vt 0.6542 0.5289 0.3279
vt 0.3445 0.5289 0.3279
vt 0.3433 0.5321 0.3279
vt 0.7415 0.4661 0.4082
vt 0.7354 0.4661 0.4082
vt 0.6591 0.5276 0.4082
vt 0.6603 0.5308 0.4082
vt 0.3397 0.5308 0.3279
vt 0.3409 0.5276 0.3279
vt 0.2646 0.4661 0.3279
vt 0.2585 0.4661 0.3279
vt 0.6575 0.5340 0.4063
vt 0.6609 0.5328 0.4063
vt 0.3438 0.5340 0.4063
vt 0.3404 0.5328 0.4063
vt 0.3391 0.5328 0.3298
vt 0.3425 0.5340 0.3298
vt 0.6562 0.5340 0.3298
vt 0.6596 0.5328 0.3298
vt 0.6583 0.5258 0.4063
vt 0.6549 0.5270 0.4063
vt 0.3463 0.5270 0.4063
vt 0.3429 0.5258 0.4063
vt 0.3451 0.5270 0.3298
vt 0.3417 0.5258 0.3298
vt 0.6571 0.5258 0.3298
vt 0.6537 0.5270 0.3298
vt 0.2588 0.4658 0.4079
vt 0.2566 0.4660 0.4063
vt 0.7436 0.4663 0.3295
vt 0.7436 0.4663 0.4067
vt 0.2587 0.4658 0.3283
vt 0.2566 0.4661 0.3298
vt 0.2691 0.4659 0.4067
vt 0.7333 0.4664 0.3283
vt 0.7311 0.4661 0.3298
vt 0.7356 0.4663 0.4079
vt 0.7335 0.4661 0.4063
vt 0.2668 0.4658 0.3295
# 216 texture coords

g 906205
usemtl 01___Default
s 2
f 1/1/1 2/2/2 3/3/3 4/4/4 
s 4
f 5/5/5 6/6/6 7/7/6 8/8/7 
f 6/6/6 9/9/8 10/10/9 7/7/6 
f 11/11/10 12/12/11 13/13/11 14/14/12 
s 2
f 15/15/13 16/16/14 17/17/15 18/18/16 
f 16/16/14 19/19/17 20/20/18 17/17/15 
f 21/21/19 22/22/20 23/23/21 24/24/22 
f 25/25/23 26/26/24 27/27/25 28/28/26 
f 26/26/24 29/29/27 30/30/28 27/27/25 
f 31/31/29 32/32/30 33/33/31 34/34/32 
f 1/1/1 12/35/33 33/36/31 
f 13/37/34 4/4/4 22/38/20 
f 4/4/4 13/37/34 12/35/33 1/1/1 
f 3/3/3 23/39/21 22/38/20 4/4/4 
f 32/40/30 2/2/2 1/1/1 33/36/31 
f 7/41/35 16/16/14 15/15/13 8/42/36 
f 27/27/25 6/43/37 5/44/38 28/28/26 
f 10/45/39 19/19/17 16/16/14 7/41/35 
f 30/30/28 9/46/40 6/43/37 27/27/25 
f 21/47/19 14/48/41 13/37/34 22/38/20 
f 11/49/42 34/50/32 33/36/31 12/35/33 
s 4
f 9/51/8 11/49/10 14/48/12 10/52/9 
s 2
f 19/53/17 21/21/19 24/24/22 20/54/18 
f 29/55/27 31/31/29 34/34/32 30/56/28 
f 10/57/39 14/48/41 21/47/19 19/58/17 
f 30/59/28 34/50/32 11/49/42 9/60/40 
f 35/1/43 36/4/44 3/3/3 2/2/2 
s 4
f 37/5/45 38/8/46 39/7/47 40/6/47 
f 40/6/47 39/7/47 41/10/48 42/9/49 
usemtl 02___Default
f 43/61/50 44/62/51 45/63/52 46/64/52 
usemtl 01___Default
s 2
f 47/15/53 18/18/16 17/17/15 48/16/54 
f 48/16/54 17/17/15 20/20/18 49/19/55 
f 50/21/56 24/24/22 23/23/21 51/22/57 
f 25/25/23 52/28/58 53/27/59 26/26/24 
f 26/26/24 53/27/59 54/30/60 29/29/27 
f 31/31/29 55/34/61 56/33/62 32/32/30 
f 35/1/43 56/36/62 46/35/63 
f 45/37/64 51/38/57 36/4/44 
f 36/4/44 35/1/43 46/35/63 45/37/64 
f 3/3/3 36/4/44 51/38/57 23/39/21 
f 32/40/30 56/36/62 35/1/43 2/2/2 
f 39/41/65 38/42/66 47/15/53 48/16/54 
f 53/27/59 52/28/58 37/44/67 40/43/68 
f 41/45/69 39/41/65 48/16/54 49/19/55 
f 54/30/60 53/27/59 40/43/68 42/46/70 
f 50/47/56 51/38/57 45/37/64 44/48/71 
f 43/49/72 46/35/63 56/36/62 55/50/61 
s 4
f 42/51/49 41/52/48 44/48/51 43/49/50 
s 2
f 49/53/55 20/54/18 24/24/22 50/21/56 
f 29/55/27 54/56/60 55/34/61 31/31/29 
f 41/57/69 49/58/55 50/47/56 44/48/71 
f 54/59/60 42/60/70 43/49/72 55/50/61 
s 16
f 57/65/73 58/66/74 59/67/73 60/68/73 
s 32
f 61/69/75 62/70/75 63/71/75 64/72/75 
s 64
f 65/73/76 66/74/76 67/75/77 68/76/77 
s 16
f 69/77/78 70/78/78 71/79/78 72/80/78 
s 32
f 73/81/79 74/82/79 75/83/79 76/84/79 
s 64
f 77/85/80 78/86/80 79/87/80 80/88/81 
s 1
f 81/89/16 82/90/16 83/91/16 84/92/16 
f 85/93/82 86/94/82 87/95/82 88/96/82 
f 89/97/16 90/98/16 91/99/15 92/100/15 
f 93/101/23 94/102/82 95/103/24 96/104/24 
f 97/105/16 98/106/16 99/107/16 100/108/16 
f 101/109/83 102/110/24 103/111/83 104/112/83 
s off
f 89/97/84 64/113/84 65/114/84 100/108/84 
f 61/115/85 92/100/85 81/89/85 60/116/85 
f 96/104/86 101/109/86 66/117/86 63/118/86 
f 88/96/87 93/101/87 62/119/87 59/120/87 
f 79/121/88 76/122/88 90/98/88 99/107/88 
f 75/123/89 72/124/89 82/90/89 91/99/89 
f 73/125/90 78/126/90 102/110/90 95/103/90 
f 69/127/91 74/128/91 94/102/91 87/95/91 
f 81/89/92 84/129/92 57/130/92 60/116/92 
f 62/70/93 61/69/93 60/68/93 59/67/93 
f 85/93/94 88/96/94 59/120/94 58/131/94 
f 89/97/95 92/100/95 61/115/95 64/113/95 
f 66/74/96 65/73/96 64/72/96 63/71/96 
f 93/101/97 96/104/97 63/118/97 62/119/97 
f 97/105/98 100/108/98 65/114/98 68/132/98 
f 101/109/99 104/133/99 67/134/99 66/117/99 
f 75/83/100 74/82/100 69/77/100 72/80/100 
f 83/91/101 82/90/101 72/124/101 71/135/101 
f 87/95/102 86/136/102 70/137/102 69/127/102 
f 79/87/103 78/86/103 73/81/103 76/84/103 
f 91/99/104 90/98/104 76/122/104 75/123/104 
f 95/103/105 94/102/105 74/128/105 73/125/105 
f 99/107/106 98/138/106 80/139/106 79/121/106 
f 103/111/107 102/110/107 78/126/107 77/140/107 
s 1
f 92/100/15 91/99/15 82/90/16 81/89/16 
f 94/102/82 93/101/23 88/96/82 87/95/82 
f 100/108/16 99/107/16 90/98/16 89/97/16 
f 102/110/24 101/109/83 96/104/24 95/103/24 
s 16
f 105/141/74 106/142/74 107/143/74 108/144/74 
s 32
f 109/145/108 110/146/108 111/147/108 112/148/75 
s 64
f 113/149/76 114/150/76 115/151/76 116/152/76 
s 16
f 117/153/78 118/154/78 119/155/78 120/156/78 
s 32
f 121/157/79 122/158/79 123/159/79 124/160/79 
s 64
f 125/161/80 126/162/80 127/163/80 128/164/80 
s 1
f 129/165/16 130/166/16 131/167/16 132/168/16 
f 133/169/82 134/170/82 135/171/83 136/172/83 
f 137/173/16 138/174/16 139/175/15 140/176/15 
f 141/177/83 142/178/83 143/179/82 144/180/82 
f 145/181/109 146/182/109 147/183/109 148/184/109 
f 149/185/24 150/186/24 151/187/24 152/188/24 
s off
f 137/173/110 112/189/110 113/190/110 148/184/110 
f 109/191/85 140/176/85 129/165/85 108/192/85 
f 144/180/86 149/185/86 114/193/86 111/194/86 
f 136/172/87 141/177/87 110/195/87 107/196/87 
f 127/197/111 124/198/111 138/174/111 147/183/111 
f 123/199/112 120/200/112 130/166/112 139/175/112 
f 121/201/113 126/202/113 150/186/113 143/179/113 
f 117/203/91 122/204/91 142/178/91 135/171/91 
f 129/165/92 132/205/92 105/206/92 108/192/92 
f 110/146/114 109/145/114 108/144/114 107/143/114 
f 133/169/94 136/172/94 107/196/94 106/207/94 
f 137/173/95 140/176/95 109/191/95 112/189/95 
f 114/150/96 113/149/96 112/148/96 111/147/96 
f 141/177/97 144/180/97 111/194/97 110/195/97 
f 145/181/115 148/184/115 113/190/115 116/208/115 
f 149/185/99 152/209/99 115/210/99 114/193/99 
f 123/159/100 122/158/100 117/153/100 120/156/100 
f 131/167/101 130/166/101 120/200/101 119/211/101 
f 135/171/102 134/212/102 118/213/102 117/203/102 
f 127/163/103 126/162/103 121/157/103 124/160/103 
f 139/175/104 138/174/104 124/198/104 123/199/104 
f 143/179/105 142/178/105 122/204/105 121/201/105 
f 147/183/116 146/214/116 128/215/116 127/197/116 
f 151/187/117 150/186/117 126/202/117 125/216/117 
s 1
f 140/176/15 139/175/15 130/166/16 129/165/16 
f 142/178/83 141/177/83 136/172/83 135/171/83 
f 148/184/109 147/183/109 138/174/16 137/173/16 
f 150/186/24 149/185/24 144/180/82 143/179/82 
# 128 polygons - 4 triangles

